<svg xmlns="http://www.w3.org/2000/svg" width="18" height="18" viewBox="0 0 18 18">
  <g id="删除" transform="translate(-221 -267)">
    <g id="组_5829" data-name="组 5829" transform="translate(221 267)">
      <rect id="矩形_2976" data-name="矩形 2976" width="18" height="18" rx="2" fill="#fff" opacity="0"/>
      <g id="组_5977" data-name="组 5977" transform="translate(-47.855 -18.48)">
        <path id="路径_816" data-name="路径 816" d="M56.94,21.609a2.215,2.215,0,0,0-2.213,2.143H51.933a.565.565,0,0,0,0,1.129h.623V31.2a2,2,0,0,0,1.8,2.155h5.062a2,2,0,0,0,1.8-2.155V24.885h.565a.565.565,0,0,0,0-1.129H59.15a2.209,2.209,0,0,0-2.209-2.147Zm-1.155,2.143a1.157,1.157,0,0,1,2.309,0H55.785ZM54.351,32.3c-.352,0-.74-.452-.74-1.1V24.885h6.541V31.2c0,.645-.388,1.1-.74,1.1H54.351Zm0,0" fill="#bababa"/>
        <path id="路径_817" data-name="路径 817" d="M325.493,431.849a.535.535,0,0,0,.47-.581v-3.318a.481.481,0,1,0-.941,0v3.318A.532.532,0,0,0,325.493,431.849Zm1.7,0a.535.535,0,0,0,.47-.581v-3.318a.481.481,0,1,0-.941,0v3.318A.536.536,0,0,0,327.2,431.849Zm1.792,0a.535.535,0,0,0,.471-.581v-3.318a.481.481,0,1,0-.941,0v3.318A.531.531,0,0,0,328.988,431.849Zm0,0" transform="translate(-270.384 -400.909)" fill="#bababa"/>
      </g>
    </g>
  </g>
</svg>
