<svg xmlns="http://www.w3.org/2000/svg" width="19" height="19" viewBox="0 0 19 19">
  <g id="Folder被选中" transform="translate(-115 -164)">
    <rect id="矩形_1541" data-name="矩形 1541" width="19" height="19" transform="translate(115 164)" fill="#fff" opacity="0"/>
    <path id="路径_698" data-name="路径 698" d="M87.566,98.588a1.114,1.114,0,0,0,1.069.788h4.557a1.128,1.128,0,0,0-1.125-1.125H87.454Zm-.45-1.463h4.95a2.257,2.257,0,0,1,2.25,2.25v.45a2.306,2.306,0,0,1,.9,1.8v6.751a2.257,2.257,0,0,1-2.25,2.25H82.25a2.257,2.257,0,0,1-2.25-2.25V98.25A2.257,2.257,0,0,1,82.25,96h2.9A2.3,2.3,0,0,1,87.116,97.125Zm-1.969,0h-2.9a1.128,1.128,0,0,0-1.125,1.125v10.126A1.128,1.128,0,0,0,82.25,109.5H92.939a1.128,1.128,0,0,0,1.125-1.125v-6.751a1.128,1.128,0,0,0-1.125-1.125H88.691a2.237,2.237,0,0,1-2.138-1.575l-.338-1.013A1.089,1.089,0,0,0,85.147,97.125Z" transform="translate(37 70)" fill="#cbcbcb"/>
    <path id="路径_718" data-name="路径 718" d="M87.566,98.588a1.114,1.114,0,0,0,1.069.788h4.557a1.128,1.128,0,0,0-1.125-1.125H87.454Zm-.45-1.463h4.95a2.257,2.257,0,0,1,2.25,2.25v.45a2.306,2.306,0,0,1,.9,1.8v6.751a2.257,2.257,0,0,1-2.25,2.25H82.25a2.257,2.257,0,0,1-2.25-2.25V98.25A2.257,2.257,0,0,1,82.25,96h2.9A2.3,2.3,0,0,1,87.116,97.125Zm-1.969,0h-2.9a1.128,1.128,0,0,0-1.125,1.125v10.126A1.128,1.128,0,0,0,82.25,109.5H92.939a1.128,1.128,0,0,0,1.125-1.125v-6.751a1.128,1.128,0,0,0-1.125-1.125H88.691a2.237,2.237,0,0,1-2.138-1.575l-.338-1.013A1.089,1.089,0,0,0,85.147,97.125Z" transform="translate(37 70)" fill="#fff"/>
    <rect id="矩形_2246" data-name="矩形 2246" width="6" height="1" rx="0.5" transform="translate(120 177)" fill="#fff"/>
  </g>
</svg>
