<svg xmlns="http://www.w3.org/2000/svg" width="19" height="19" viewBox="0 0 19 19">
  <g id="Group未打开-选中" transform="translate(-115 -284)">
    <rect id="矩形_1541" data-name="矩形 1541" width="19" height="19" transform="translate(115 284)" fill="#fff" opacity="0"/>
    <path id="路径_698" data-name="路径 698" d="M87.566,98.588a1.114,1.114,0,0,0,1.069.788h4.557a1.128,1.128,0,0,0-1.125-1.125H87.454Zm-.45-1.463h4.95a2.257,2.257,0,0,1,2.25,2.25v.45a2.306,2.306,0,0,1,.9,1.8v6.751a2.257,2.257,0,0,1-2.25,2.25H82.25a2.257,2.257,0,0,1-2.25-2.25V98.25A2.257,2.257,0,0,1,82.25,96h2.9A2.3,2.3,0,0,1,87.116,97.125Z" transform="translate(37 190)" fill="#fff"/>
    <rect id="矩形_2245" data-name="矩形 2245" width="6" height="1" rx="0.5" transform="translate(120 297)" fill="#373737"/>
  </g>
</svg>
