<svg xmlns="http://www.w3.org/2000/svg" width="38" height="34" viewBox="0 0 38 34">
  <g id="Hexagon" transform="translate(-520 -667)">
    <rect id="矩形_2265" data-name="矩形 2265" width="38" height="34" transform="translate(520 667)" fill="#fff" opacity="0"/>
    <g id="多边形_20" data-name="多边形 20" transform="translate(526 672)" fill="none">
      <path d="M18.333,0a2,2,0,0,1,1.741,1.016l5.37,9.5a2,2,0,0,1,0,1.968l-5.37,9.5A2,2,0,0,1,18.333,23H7.667a2,2,0,0,1-1.741-1.016l-5.37-9.5a2,2,0,0,1,0-1.968l5.37-9.5A2,2,0,0,1,7.667,0Z" stroke="none"/>
      <path d="M 7.666929244995117 2 L 7.666940689086914 2 L 2.297370910644531 11.5 L 7.666929244995117 21 L 18.33306884765625 21 L 23.70262908935547 11.5 L 18.33306884765625 2 L 7.666929244995117 2 M 7.666929244995117 0 L 18.33306884765625 0 C 19.05414009094238 0 19.71939086914062 0.3881492614746094 20.07419967651367 1.015880584716797 L 25.44375991821289 10.51589012145996 C 25.78893089294434 11.12656021118164 25.78893089294434 11.87343978881836 25.44375991821289 12.48410987854004 L 20.07419967651367 21.98410987854004 C 19.71939086914062 22.61185073852539 19.05414009094238 23 18.33306884765625 23 L 7.666929244995117 23 C 6.945859909057617 23 6.280609130859375 22.61185073852539 5.925800323486328 21.98410987854004 L 0.5562400817871094 12.48410987854004 C 0.2110691070556641 11.87343978881836 0.2110691070556641 11.12656021118164 0.5562400817871094 10.51587963104248 L 5.925809860229492 1.015880584716797 C 6.280609130859375 0.3881492614746094 6.945859909057617 0 7.666929244995117 0 Z" stroke="none" fill="#ddd"/>
    </g>
  </g>
</svg>
