<svg id="组件_64_7" data-name="组件 64 – 7" xmlns="http://www.w3.org/2000/svg" width="24" height="24" viewBox="0 0 24 24">
  <rect id="矩形_2713" data-name="矩形 2713" width="24" height="24" rx="3" fill="#fff" opacity="0.2"/>
  <path id="路径_748" data-name="路径 748" d="M17.052,6.842,9.344.246a1.072,1.072,0,0,0-1.337,0L.3,6.842a.808.808,0,0,0-.227.947.967.967,0,0,0,.887.547h.772v6.815a.929.929,0,0,0,.816,1.009H5.371a.929.929,0,0,0,.816-1.009v-4.51A.929.929,0,0,1,7,9.632h3.345a.929.929,0,0,1,.816,1.009v4.509a.929.929,0,0,0,.816,1.009H14.8a.929.929,0,0,0,.816-1.009V8.336h.772a.967.967,0,0,0,.887-.547.809.809,0,0,0-.227-.947Z" transform="translate(2.997 3.988)" fill="#c0ff6a"/>
</svg>
