<svg xmlns="http://www.w3.org/2000/svg" width="16" height="16" viewBox="0 0 16 16">
  <g id="锁定on_click" data-name="锁定on click" transform="translate(-455.135 -295.135)">
    <g id="矩形_2703" data-name="矩形 2703" transform="translate(456.135 296.135)" fill="#8f8f8f" stroke="#fff" stroke-width="1">
      <rect width="14" height="14" rx="7" stroke="none"/>
      <rect x="-0.5" y="-0.5" width="15" height="15" rx="7.5" fill="none"/>
    </g>
    <g id="组_5209" data-name="组 5209" transform="translate(459.333 298.735)">
      <path id="路径_736" data-name="路径 736" d="M241.87,468.636a.646.646,0,0,0-.473-.2h-6.273a.629.629,0,0,0-.468.2.654.654,0,0,0-.193.473v2.507a1.314,1.314,0,0,0,.086.478,1.182,1.182,0,0,0,1.123.763h5.135a1.212,1.212,0,0,0,.9-.381,1.325,1.325,0,0,0,.264-.417,1.357,1.357,0,0,0,.1-.513v-2.435A.645.645,0,0,0,241.87,468.636Zm-3.367,2.332v1.226a.237.237,0,0,1-.474,0v-1.226a.725.725,0,1,1,.474,0Z" transform="translate(-234.463 -465.321)" fill="#fff"/>
      <path id="路径_737" data-name="路径 737" d="M334.451,125.982a1.377,1.377,0,0,1,.336-.991,1.168,1.168,0,0,1,.885-.351,1.316,1.316,0,0,1,.966.351,1.329,1.329,0,0,1,.356.991v.493h1.23V125.7a2.027,2.027,0,0,0-.208-.91,2.492,2.492,0,0,0-.559-.742,2.659,2.659,0,0,0-.8-.5,2.485,2.485,0,0,0-.94-.183,2.727,2.727,0,0,0-1.012.183,2.5,2.5,0,0,0-.8.5,2.355,2.355,0,0,0-.534.742,2.16,2.16,0,0,0-.193.91v.778h1.281v-.493Z" transform="translate(-331.899 -123.358)" fill="#fff"/>
    </g>
  </g>
</svg>
