<svg xmlns="http://www.w3.org/2000/svg" width="38" height="34" viewBox="0 0 38 34">
  <g id="Pentagon" transform="translate(-438 -667)">
    <rect id="矩形_2265" data-name="矩形 2265" width="38" height="34" transform="translate(438 667)" fill="#fff" opacity="0"/>
    <g id="多边形_20" data-name="多边形 20" transform="translate(444.5 672)" fill="none">
      <path d="M11.35.808a2,2,0,0,1,2.3,0L23.779,7.927a2,2,0,0,1,.746,2.273L20.683,21.637A2,2,0,0,1,18.787,23H6.213a2,2,0,0,1-1.9-1.363L.475,10.2a2,2,0,0,1,.746-2.273Z" stroke="none"/>
      <path d="M 12.5 2.444538116455078 L 2.371149063110352 9.563287734985352 L 6.212610244750977 20.99999809265137 L 18.78738975524902 21.00000762939453 L 22.62884902954102 9.563277244567871 L 12.50053977966309 2.444578170776367 C 12.50047969818115 2.44456672668457 12.50028038024902 2.444538116455078 12.5 2.444538116455078 M 12.5 0.4445419311523438 C 12.90250968933105 0.4445419311523438 13.30502033233643 0.5657768249511719 13.65001964569092 0.8082466125488281 L 23.77886962890625 7.926987648010254 C 24.50321960449219 8.436077117919922 24.80665969848633 9.360816955566406 24.52475929260254 10.20009708404541 L 20.68330001831055 21.63681793212891 C 20.40974044799805 22.45126724243164 19.64656066894531 22.99999809265137 18.78738975524902 22.99999809265137 L 6.212610244750977 22.99999809265137 C 5.353439331054688 22.99999809265137 4.590259552001953 22.45126724243164 4.316699981689453 21.63681793212891 L 0.4752407073974609 10.20009708404541 C 0.1933403015136719 9.360816955566406 0.4967803955078125 8.436077117919922 1.22113037109375 7.926987648010254 L 11.34998035430908 0.8082466125488281 C 11.69497966766357 0.5657768249511719 12.09749031066895 0.4445419311523438 12.5 0.4445419311523438 Z" stroke="none" fill="#ddd"/>
    </g>
  </g>
</svg>
