<svg id="Switcher-选中" xmlns="http://www.w3.org/2000/svg" width="19" height="19" viewBox="0 0 19 19">
  <rect id="矩形_1540" data-name="矩形 1540" width="19" height="19" fill="#fff" opacity="0"/>
  <g id="组_6535" data-name="组 6535">
    <path id="矩形_3074" data-name="矩形 3074" d="M1,1v9h9V1H1M1,0h9a1,1,0,0,1,1,1v9a1,1,0,0,1-1,1H1a1,1,0,0,1-1-1V1A1,1,0,0,1,1,0Z" transform="translate(4 5)" fill="#fff"/>
    <rect id="矩形_3077" data-name="矩形 3077" width="3" height="1" rx="0.5" transform="translate(4 3)" fill="#fff"/>
    <rect id="矩形_3078" data-name="矩形 3078" width="3" height="1" rx="0.5" transform="translate(8 3)" fill="#797979"/>
    <rect id="矩形_3079" data-name="矩形 3079" width="3" height="1" rx="0.5" transform="translate(12 3)" fill="#797979"/>
  </g>
</svg>
