<svg xmlns="http://www.w3.org/2000/svg" width="38" height="34" viewBox="0 0 38 34">
  <g id="Triangle_变亮" data-name="Triangle 变亮" transform="translate(-520 -587)">
    <rect id="矩形_2265" data-name="矩形 2265" width="38" height="34" transform="translate(520 587)" fill="#fff" opacity="0"/>
    <g id="多边形_49" data-name="多边形 49" transform="translate(527 593)" fill="none">
      <path d="M11.132,1.519a1,1,0,0,1,1.736,0L23.145,19.5a1,1,0,0,1-.868,1.5H1.723a1,1,0,0,1-.868-1.5Z" stroke="none"/>
      <path d="M 12.00000381469727 4.031133651733398 L 3.446357727050781 18.99999618530273 L 20.55363273620605 18.99999618530273 L 12.00000381469727 4.031133651733398 M 12 1.015560150146484 C 12.33814716339111 1.015560150146484 12.67629528045654 1.183515548706055 12.86824035644531 1.519424438476562 L 23.14505958557129 19.50385475158691 C 23.52601051330566 20.1705150604248 23.04463958740234 20.99999618530273 22.27681922912598 20.99999618530273 L 1.723180770874023 20.99999618530273 C 0.9553604125976562 20.99999618530273 0.4739894866943359 20.1705150604248 0.8549404144287109 19.50385475158691 L 11.13175964355469 1.519424438476562 C 11.32370471954346 1.183515548706055 11.66185283660889 1.015560150146484 12 1.015560150146484 Z" stroke="none" fill="#fff"/>
    </g>
  </g>
</svg>
