<svg width="28" height="28" viewBox="0 0 28 28" fill="none" xmlns="http://www.w3.org/2000/svg">
<path d="M7.63864 13.3159C7.62407 12.1918 7.94267 11.0886 8.55413 10.1458C9.1656 9.20301 10.0425 8.46297 11.0739 8.01927C12.1053 7.57557 13.2449 7.44813 14.3486 7.65306C15.4524 7.85799 16.4706 8.38609 17.2747 9.17058C18.0787 9.95507 18.6324 10.9607 18.8658 12.0604C19.0992 13.16 19.0018 14.3043 18.5858 15.3485C18.1699 16.3926 17.4541 17.2899 16.529 17.9266C15.6039 18.5634 14.511 18.9112 13.3886 18.926C12.6432 18.9359 11.9032 18.7987 11.2108 18.5222C10.5183 18.2457 9.88707 17.8353 9.35302 17.3145C8.81898 16.7936 8.39262 16.1725 8.09828 15.4866C7.80395 14.8007 7.64741 14.0634 7.63761 13.3169L7.63864 13.3159ZM21.7649 20.6304L18.9965 17.8568C20.159 16.3961 20.7185 14.545 20.5602 12.6839C20.4018 10.8228 19.5375 9.09315 18.1449 7.8506C16.7524 6.60805 14.9375 5.94699 13.0733 6.00333C11.2091 6.05966 9.43725 6.82911 8.12206 8.15348C6.80688 9.47786 6.04828 11.2565 6.00223 13.1238C5.95617 14.9911 6.62616 16.8051 7.87446 18.1929C9.12275 19.5806 10.8545 20.4368 12.7136 20.5852C14.5728 20.7336 16.4181 20.1631 17.8702 18.9909L20.6324 21.7604C20.779 21.9101 20.9785 21.9961 21.1878 21.9999C21.3972 22.0036 21.5996 21.9248 21.7514 21.7805C21.9033 21.6361 21.9924 21.4377 21.9995 21.2282C22.0067 21.0186 21.9313 20.8147 21.7896 20.6603L21.7608 20.6314L21.7649 20.6304Z" fill="white"/>
</svg>
