<svg width="16" height="16" viewBox="0 0 16 16" fill="none" xmlns="http://www.w3.org/2000/svg">
<path d="M16.001 14.6449C16.0115 14.8563 15.9395 15.0634 15.8006 15.2217C15.6617 15.3801 15.4669 15.4771 15.258 15.4919V15.501H0.758031V15.4919H0.751027C0.540719 15.4789 0.343996 15.3825 0.203572 15.2237C0.0631473 15.0649 -0.00964023 14.8566 0.00102674 14.6439C0.000571153 14.4814 0.0426641 14.3217 0.123028 14.1809L7.37403 0.886115C7.4354 0.771442 7.52578 0.675281 7.63593 0.607446C7.74608 0.539612 7.87207 0.502538 8.00103 0.5C8.13493 0.503621 8.26533 0.544011 8.37825 0.616839C8.49118 0.689668 8.58237 0.792186 8.64203 0.913406L15.893 14.2052C15.9651 14.3402 16.0023 14.4915 16.001 14.6449ZM9.00103 5.30929C9.01644 5.16726 9.00208 5.02353 8.95885 4.88748C8.91563 4.75144 8.84452 4.62613 8.75016 4.51972C8.65581 4.41332 8.54033 4.32821 8.41125 4.26994C8.28217 4.21167 8.14239 4.18156 8.00103 4.18156C7.85966 4.18156 7.71989 4.21167 7.59081 4.26994C7.46173 4.32821 7.34625 4.41332 7.2519 4.51972C7.15754 4.62613 7.08643 4.75144 7.04321 4.88748C6.99998 5.02353 6.98561 5.16726 7.00103 5.30929V9.55458C6.98428 9.69736 6.99766 9.8421 7.04027 9.97928C7.08288 10.1165 7.15376 10.243 7.24823 10.3504C7.34271 10.4579 7.45864 10.544 7.5884 10.6029C7.71815 10.6618 7.85878 10.6922 8.00103 10.6922C8.14327 10.6922 8.28391 10.6618 8.41366 10.6029C8.54342 10.544 8.65935 10.4579 8.75383 10.3504C8.8483 10.243 8.91918 10.1165 8.96179 9.97928C9.0044 9.8421 9.01777 9.69736 9.00103 9.55458V5.30929ZM8.00103 11.5317C7.77421 11.5057 7.54493 11.5499 7.34353 11.6585C7.14213 11.7671 6.97811 11.935 6.87317 12.1399C6.76824 12.3448 6.72733 12.5771 6.75588 12.806C6.78442 13.0349 6.88107 13.2497 7.03302 13.4219C7.18498 13.5941 7.38508 13.7155 7.60685 13.7702C7.82861 13.8249 8.06158 13.8103 8.27492 13.7282C8.48826 13.6461 8.67192 13.5005 8.80158 13.3106C8.93124 13.1207 9.00079 12.8955 9.00103 12.6648C9.01578 12.3807 8.91883 12.1023 8.73131 11.8902C8.54379 11.6782 8.28092 11.5496 8.00003 11.5327L8.00103 11.5317Z" fill="#FF7D7D"/>
</svg>
