<svg width="25" height="23" viewBox="0 0 25 23" fill="none" xmlns="http://www.w3.org/2000/svg">
    <path fill-rule="evenodd" clip-rule="evenodd" d="M1.24795 12.9343C1.00396 13.1783 0.866986 13.5093 0.867188 13.8543L0.869174 17.2464C0.869594 17.9638 1.45104 18.5453 2.16841 18.5457L5.56054 18.5477C5.90558 18.5479 6.23655 18.4109 6.48054 18.1669L18.6083 6.03913C19.116 5.53145 19.116 4.70834 18.6083 4.20065L15.2142 0.806542C14.7065 0.29886 13.8834 0.298862 13.3757 0.806542L1.24795 12.9343ZM2.26912 17.1457L2.26721 13.895L14.295 1.8672L17.5477 5.11989L5.5199 17.1476L2.26912 17.1457ZM0.996875 21.3008C0.610276 21.3008 0.296875 21.6142 0.296875 22.0008C0.296875 22.3874 0.610276 22.7008 0.996875 22.7008H23.9969C24.3835 22.7008 24.6969 22.3874 24.6969 22.0008C24.6969 21.6142 24.3835 21.3008 23.9969 21.3008H0.996875Z" fill="white"/>
</svg>
