<svg xmlns="http://www.w3.org/2000/svg" width="23" height="23" viewBox="0 0 23 23">
  <g id="Element" transform="translate(-115 -44)">
    <rect id="矩形_3296" data-name="矩形 3296" width="23" height="23" transform="translate(115 44)" fill="#fff" opacity="0"/>
    <g id="组_6208" data-name="组 6208" transform="translate(-92.331 -0.677)">
      <g id="组_3888" data-name="组 3888" transform="translate(211 50.123)">
        <path id="路径_687" data-name="路径 687" d="M299.069,179.169l-7.513,3.8-7.513-3.8a.514.514,0,0,1,0-.916l7.281-3.685a.514.514,0,0,1,.464,0l7.281,3.685A.514.514,0,0,1,299.069,179.169Z" transform="translate(-283.725 -174.495)" fill="#9b9b9b"/>
        <path id="路径_688" data-name="路径 688" d="M290.886,182.614l-7.476-3.784a.514.514,0,0,1,0-.916l7.244-3.666a.514.514,0,0,1,.464,0l7.244,3.666a.514.514,0,0,1,0,.916l-7.476,3.784m0,.037,7.549-3.821a.514.514,0,0,0,0-.916l-7.317-3.7a.513.513,0,0,0-.464,0l-7.317,3.7a.514.514,0,0,0,0,.916l7.549,3.821Z" transform="translate(-283.055 -174.155)" fill="#9b9b9b"/>
      </g>
      <path id="路径_689" data-name="路径 689" d="M292.227,308.408l-6.076-3.075-1.4.709a.514.514,0,0,0,0,.916l7.244,3.666a.513.513,0,0,0,.464,0l7.244-3.666a.514.514,0,0,0,0-.916l-1.4-.709Z" transform="translate(-73.396 -248.449)" fill="#9b9b9b"/>
    </g>
  </g>
</svg>
