<svg xmlns="http://www.w3.org/2000/svg" width="19.999" height="19.999" viewBox="0 0 19.999 19.999">
  <g id="吸管" transform="translate(-1868.001 -751.209)">
    <rect id="矩形_2719" data-name="矩形 2719" width="19.999" height="19.999" rx="3" transform="translate(1868.001 751.209)" fill="#fff" opacity="0"/>
    <path id="路径_750" data-name="路径 750" d="M138.344,104.618a1,1,0,0,1,.711.3l.616.616a1.006,1.006,0,0,1,0,1.423l-1.432,1.43.234.234a.646.646,0,0,1,0,.914l-.453.454a.647.647,0,0,1-.915,0l-.083-.083-5.715,5.689a1.447,1.447,0,0,1-.833.414l-.118.011-.232.23a1.266,1.266,0,0,1-1.863-1.71l.074-.08.23-.23a1.459,1.459,0,0,1,.344-.864l.081-.088,5.716-5.691-.107-.107-.054-.061a.647.647,0,0,1,.054-.854l.453-.453a.647.647,0,0,1,.915,0l.233.234,1.431-1.431a1,1,0,0,1,.711-.3Zm-3.178,3.424-5.716,5.691a.818.818,0,0,0-.228.445l-.009.085-.014.247-.4.4a.619.619,0,0,0,.813.929l.061-.054.407-.406.248-.013a.8.8,0,0,0,.465-.18l.064-.058,5.713-5.688-1.4-1.4Z" transform="translate(1744.033 650.59)" fill="#cbcbcb"/>
  </g>
</svg>
