<svg width="24" height="24" viewBox="0 0 24 24" fill="none" xmlns="http://www.w3.org/2000/svg">
    <path d="M20.9985 19.0828C21.012 19.3089 20.9319 19.531 20.7755 19.7009C20.619 19.8707 20.3989 19.9746 20.163 19.99V20H3.85118V19.9819H3.84455C3.60726 19.9683 3.38525 19.8652 3.22721 19.6951C3.06916 19.5251 2.98798 19.302 3.00144 19.0747C3.00095 18.9014 3.04834 18.7312 3.1388 18.5812H3.13407L11.2905 4.41186C11.3595 4.28954 11.4612 4.18697 11.5852 4.11461C11.7092 4.04225 11.851 4.0027 11.9962 4C12.1467 4.00379 12.2934 4.04675 12.4204 4.12426C12.5474 4.20177 12.6499 4.31091 12.7171 4.43998H12.7218L20.8773 18.6093H20.8725C20.9559 18.7543 20.9992 18.9173 20.9985 19.0828ZM13.1282 9.13376C13.1517 8.97918 13.1402 8.82157 13.0944 8.67164C13.0487 8.52171 12.9698 8.38296 12.863 8.26483C12.7563 8.14669 12.6243 8.05193 12.476 7.98698C12.3276 7.92203 12.1664 7.88841 12.0033 7.88841C11.8402 7.88841 11.679 7.92203 11.5306 7.98698C11.3823 8.05193 11.2503 8.14669 11.1436 8.26483C11.0368 8.38296 10.9579 8.52171 10.9122 8.67164C10.8664 8.82157 10.8549 8.97918 10.8784 9.13376V13.6561C10.8554 13.8104 10.8673 13.9677 10.9133 14.1173C10.9594 14.2669 11.0384 14.4053 11.1451 14.523C11.2518 14.6408 11.3837 14.7353 11.5319 14.8C11.68 14.8648 11.8409 14.8983 12.0038 14.8983C12.1666 14.8983 12.3275 14.8648 12.4757 14.8C12.6238 14.7353 12.7557 14.6408 12.8624 14.523C12.9691 14.4053 13.0482 14.2669 13.0942 14.1173C13.1402 13.9677 13.1522 13.8104 13.1292 13.6561V9.13376H13.1282ZM12.0028 15.7662C11.7475 15.7384 11.4894 15.7856 11.2627 15.9014C11.036 16.0173 10.8513 16.1963 10.7332 16.4148C10.6151 16.6334 10.5691 16.8811 10.6013 17.1253C10.6335 17.3694 10.7424 17.5984 10.9135 17.782C11.0846 17.9656 11.3099 18.0951 11.5595 18.1533C11.8092 18.2116 12.0714 18.1959 12.3115 18.1082C12.5517 18.0206 12.7583 17.8652 12.9042 17.6626C13.05 17.46 13.1281 17.2197 13.1282 16.9736C13.1453 16.67 13.0359 16.3722 12.824 16.1457C12.6122 15.9192 12.3151 15.7824 11.9981 15.7653L12.0028 15.7662Z" fill="#FF7D7D"/>
</svg>