<svg width="44" height="44" viewBox="0 0 44 44" fill="none" xmlns="http://www.w3.org/2000/svg">
<path fill-rule="evenodd" clip-rule="evenodd" d="M36 22C36 29.732 29.732 36 22 36C14.268 36 8 29.732 8 22C8 14.268 14.268 8 22 8C29.732 8 36 14.268 36 22ZM38 22C38 30.8366 30.8366 38 22 38C13.1634 38 6 30.8366 6 22C6 13.1634 13.1634 6 22 6C30.8366 6 38 13.1634 38 22ZM15.4805 23.3359C15.09 23.7264 15.09 24.3596 15.4805 24.7501C15.8711 25.1406 16.5042 25.1406 16.8948 24.7501L21.9965 19.6484L27.0982 24.7501C27.4887 25.1406 28.1219 25.1406 28.5124 24.7501C28.9029 24.3596 28.9029 23.7264 28.5124 23.3359L23.1278 17.9513C22.503 17.3265 21.4899 17.3265 20.8651 17.9513L15.4805 23.3359Z" fill="white"/>
</svg>
