<svg width="44" height="44" viewBox="0 0 44 44" fill="none" xmlns="http://www.w3.org/2000/svg">
<path fill-rule="evenodd" clip-rule="evenodd" d="M37 22C37 30.2843 30.2843 37 22 37C13.7157 37 7 30.2843 7 22C7 13.7157 13.7157 7 22 7C30.2843 7 37 13.7157 37 22ZM38 22C38 30.8366 30.8366 38 22 38C13.1634 38 6 30.8366 6 22C6 13.1634 13.1634 6 22 6C30.8366 6 38 13.1634 38 22ZM15.8339 23.6894L15.4804 24.043L16.1875 24.7501L16.5411 24.3965L21.9963 18.9413L27.4516 24.3965L27.8051 24.7501L28.5123 24.043L28.1587 23.6894L22.3499 17.8806L21.9963 17.527L21.6428 17.8806L15.8339 23.6894Z" fill="white"/>
</svg>
