<svg width="44" height="44" viewBox="0 0 44 44" fill="none" xmlns="http://www.w3.org/2000/svg">
<path fill-rule="evenodd" clip-rule="evenodd" d="M36 22C36 29.732 29.732 36 22 36C14.268 36 8 29.732 8 22C8 14.268 14.268 8 22 8C29.732 8 36 14.268 36 22ZM38 22C38 30.8366 30.8366 38 22 38C13.1634 38 6 30.8366 6 22C6 13.1634 13.1634 6 22 6C30.8366 6 38 13.1634 38 22ZM15.4804 23.3359L14.7733 24.043L16.1875 25.4572L16.8946 24.7501L21.9963 19.6484L27.098 24.7501L27.8051 25.4572L29.2194 24.043L28.5123 23.3359L22.7034 17.527L21.9963 16.8199L21.2892 17.527L15.4804 23.3359Z" fill="white"/>
</svg>
