<svg width="236" height="120" viewBox="0 0 236 120" fill="none" xmlns="http://www.w3.org/2000/svg">
<rect width="236" height="120" rx="5" fill="white" fill-opacity="0.2"/>
<path fill-rule="evenodd" clip-rule="evenodd" d="M15.0098 53.9903C15.2051 54.1855 15.2051 54.5021 15.0098 54.6974L10.0601 59.6471C9.86479 59.8424 9.86479 60.159 10.0601 60.3542L15.0098 65.304C15.2051 65.4992 15.2051 65.8158 15.0098 66.0111C14.8145 66.2063 14.498 66.2063 14.3027 66.0111L9.35295 61.0613C8.76716 60.4756 8.76716 59.5258 9.35295 58.94L14.3027 53.9903C14.498 53.795 14.8145 53.795 15.0098 53.9903Z" fill="white"/>
<path fill-rule="evenodd" clip-rule="evenodd" d="M220.99 66.0097C220.795 65.8145 220.795 65.4979 220.99 65.3026L225.94 60.3529C226.135 60.1576 226.135 59.841 225.94 59.6458L220.99 54.696C220.795 54.5008 220.795 54.1842 220.99 53.9889C221.185 53.7937 221.502 53.7937 221.697 53.9889L226.647 58.9387C227.233 59.5244 227.233 60.4742 226.647 61.06L221.697 66.0097C221.502 66.205 221.185 66.205 220.99 66.0097Z" fill="white"/>
</svg>
