<svg width="24" height="24" viewBox="0 0 24 24" fill="none" xmlns="http://www.w3.org/2000/svg">
<path fill-rule="evenodd" clip-rule="evenodd" d="M4.79182 13.139C4.5666 13.3642 4.44016 13.6697 4.44035 13.9882L4.44151 15.9669C4.44189 16.6291 4.97861 17.1658 5.6408 17.1662L7.61954 17.1674C7.93805 17.1676 8.24356 17.0411 8.46878 16.8159L16.3539 8.93077C16.8225 8.46214 16.8225 7.70234 16.3539 7.23371L14.374 5.25382C13.9054 4.78519 13.1456 4.78519 12.677 5.25382L4.79182 13.139ZM5.64035 13.9875L13.5255 6.10234L15.5054 8.08224L7.62025 15.9674L5.64151 15.9662L5.64035 13.9875ZM4.61563 18.7848C4.28425 18.7848 4.01562 19.0535 4.01562 19.3848C4.01562 19.7162 4.28425 19.9848 4.61563 19.9848H19.3849C19.7162 19.9848 19.9849 19.7162 19.9849 19.3848C19.9849 19.0535 19.7162 18.7848 19.3849 18.7848H4.61563Z" fill="#949494"/>
</svg>
