<svg width="44" height="44" viewBox="0 0 44 44" fill="none" xmlns="http://www.w3.org/2000/svg">
<path d="M22.479 36.9595C21.8381 36.9716 21.2163 36.7412 20.738 36.3145L19.964 35.6055C16.094 31.9935 7 23.6055 7 17.0305C7.00686 14.6377 7.96043 12.3449 9.6524 10.6529C11.3444 8.96092 13.6372 8.00735 16.03 8.00049C17.2331 7.98779 18.4261 8.22158 19.5353 8.68749C20.6446 9.15339 21.6468 9.84153 22.48 10.7095C23.3132 9.84153 24.3153 9.15339 25.4246 8.68749C26.5339 8.22158 27.7269 7.98779 28.93 8.00049C31.3228 8.00735 33.6156 8.96092 35.3076 10.6529C36.9996 12.3449 37.9531 14.6377 37.96 17.0305C37.96 23.7385 28.672 32.1875 24.738 35.7995L24.222 36.2515C24.0004 36.4886 23.7299 36.6748 23.4294 36.7972C23.1288 36.9196 22.8052 36.9753 22.481 36.9605L22.479 36.9595Z" fill="white"/>
</svg>
