<svg width="52" height="52" viewBox="0 0 52 52" fill="none" xmlns="http://www.w3.org/2000/svg">
<g filter="url(#filter0_d_379_4188)">
<rect x="10" y="10" width="32" height="32" rx="16" fill="white"/>
</g>
<path d="M24.7065 27.29V27.29C23.5349 26.1185 23.5349 24.219 24.7065 23.0474L27.5349 20.219C28.7065 19.0474 30.606 19.0474 31.7776 20.219V20.219C32.9491 21.3905 32.9491 23.29 31.7776 24.4616L30.3634 25.8758" stroke="#A3DA58" stroke-width="2"/>
<path d="M27.2932 24.7034V24.7034C28.4648 25.8749 28.4648 27.7744 27.2932 28.946L24.4648 31.7744C23.2932 32.946 21.3937 32.946 20.2221 31.7744V31.7744C19.0506 30.6028 19.0506 28.7034 20.2221 27.5318L21.6363 26.1176" stroke="#A3DA58" stroke-width="2" stroke-linejoin="round"/>
<defs>
<filter id="filter0_d_379_4188" x="0" y="0" width="52" height="52" filterUnits="userSpaceOnUse" color-interpolation-filters="sRGB">
<feFlood flood-opacity="0" result="BackgroundImageFix"/>
<feColorMatrix in="SourceAlpha" type="matrix" values="0 0 0 0 0 0 0 0 0 0 0 0 0 0 0 0 0 0 127 0" result="hardAlpha"/>
<feOffset/>
<feGaussianBlur stdDeviation="5"/>
<feComposite in2="hardAlpha" operator="out"/>
<feColorMatrix type="matrix" values="0 0 0 0 0 0 0 0 0 0 0 0 0 0 0 0 0 0 0.15 0"/>
<feBlend mode="normal" in2="BackgroundImageFix" result="effect1_dropShadow_379_4188"/>
<feBlend mode="normal" in="SourceGraphic" in2="effect1_dropShadow_379_4188" result="shape"/>
</filter>
</defs>
</svg>
