<svg width="52" height="52" viewBox="0 0 52 52" fill="none" xmlns="http://www.w3.org/2000/svg">
<g filter="url(#filter0_d_366_3579)">
<rect x="10" y="10" width="32" height="32" rx="16" fill="white"/>
</g>
<path d="M33.7111 24.3221H32.4898C32.0891 24.3221 31.7423 24.0506 31.5884 23.6807C31.4344 23.3103 31.4904 22.8783 31.774 22.5947L32.6363 21.7324C32.9431 21.4256 32.9431 20.9263 32.6363 20.6195L31.3767 19.3599C31.0699 19.0531 30.5706 19.0531 30.2638 19.3599L29.402 20.2229C29.119 20.5063 28.6884 20.5633 28.3184 20.4098C27.948 20.2561 27.676 19.9087 27.676 19.5077V18.287C27.676 17.8544 27.3215 17.5 26.889 17.5H25.1091C24.6765 17.5 24.3221 17.8544 24.3221 18.287V19.5083C24.3221 19.909 24.0506 20.2558 23.6807 20.4097C23.3103 20.5637 22.8783 20.5077 22.5947 20.2241L21.7305 19.3599C21.4237 19.0531 20.9244 19.0531 20.6176 19.3599L19.358 20.6195C19.0512 20.9263 19.0512 21.4256 19.358 21.7324L20.2227 22.5971C20.5054 22.8798 20.5631 23.3089 20.4102 23.6782C20.2565 24.0494 19.9082 24.3221 19.5065 24.3221H18.287C17.8544 24.3221 17.5 24.6765 17.5 25.1091V26.889C17.5 27.3215 17.8544 27.676 18.287 27.676H19.5083C19.909 27.676 20.2558 27.9475 20.4097 28.3174C20.5637 28.6878 20.5077 29.1198 20.2241 29.4034L19.3599 30.2676C19.0531 30.5744 19.0531 31.0737 19.3599 31.3805L20.6195 32.6401C20.9263 32.9469 21.4256 32.9469 21.7324 32.6401L22.5942 31.7783C22.8783 31.4942 23.311 31.4378 23.682 31.5918C24.0519 31.7453 24.3221 32.0923 24.3221 32.4928V33.7149C24.3221 34.1475 24.6765 34.5019 25.1091 34.5019H26.889C27.3215 34.5019 27.676 34.1475 27.676 33.7149V32.4936C27.676 32.0929 27.9475 31.7461 28.3174 31.5922C28.6878 31.4382 29.1198 31.4942 29.4034 31.7778L30.2657 32.6401C30.5725 32.9469 31.0718 32.9469 31.3786 32.6401L32.6382 31.3805C32.945 31.0737 32.945 30.5744 32.6382 30.2676L31.7758 29.404C31.4921 29.1199 31.4358 28.6872 31.5898 28.3163C31.7434 27.9463 32.0905 27.676 32.4912 27.676H33.713C34.1456 27.676 34.5 27.3215 34.5 26.889V25.1091C34.4981 24.6765 34.1437 24.3221 33.7111 24.3221ZM26.001 28.6402C24.5413 28.6421 23.356 27.4568 23.3579 25.9971C23.3598 24.5603 24.5622 23.3579 25.9971 23.3579C27.4568 23.356 28.6421 24.5413 28.6402 26.001C28.6402 27.4378 27.4378 28.6402 26.001 28.6402Z" fill="#4D4D4D"/>
<defs>
<filter id="filter0_d_366_3579" x="0" y="0" width="52" height="52" filterUnits="userSpaceOnUse" color-interpolation-filters="sRGB">
<feFlood flood-opacity="0" result="BackgroundImageFix"/>
<feColorMatrix in="SourceAlpha" type="matrix" values="0 0 0 0 0 0 0 0 0 0 0 0 0 0 0 0 0 0 127 0" result="hardAlpha"/>
<feOffset/>
<feGaussianBlur stdDeviation="5"/>
<feComposite in2="hardAlpha" operator="out"/>
<feColorMatrix type="matrix" values="0 0 0 0 0 0 0 0 0 0 0 0 0 0 0 0 0 0 0.15 0"/>
<feBlend mode="normal" in2="BackgroundImageFix" result="effect1_dropShadow_366_3579"/>
<feBlend mode="normal" in="SourceGraphic" in2="effect1_dropShadow_366_3579" result="shape"/>
</filter>
</defs>
</svg>
