<svg width="44" height="44" viewBox="0 0 44 44" fill="none" xmlns="http://www.w3.org/2000/svg">
<path d="M21.1612 7.57779C21.2416 7.40517 21.3696 7.25909 21.5302 7.15673C21.6908 7.05438 21.8772 7 22.0677 7C22.2581 7 22.4446 7.05438 22.6052 7.15673C22.7658 7.25909 22.8938 7.40517 22.9742 7.57779L26.7222 15.6138C26.7937 15.7669 26.9028 15.8994 27.0394 15.9989C27.176 16.0984 27.3355 16.1617 27.5032 16.1828L36.2612 17.2918C36.4491 17.3156 36.6265 17.3923 36.7725 17.5131C36.9186 17.6338 37.0273 17.7935 37.0861 17.9736C37.1449 18.1537 37.1513 18.3469 37.1046 18.5305C37.0578 18.7141 36.9599 18.8807 36.8222 19.0108L30.3752 25.1028C30.2524 25.2176 30.1605 25.3616 30.108 25.5214C30.0556 25.6811 30.0443 25.8515 30.0752 26.0168L31.7352 34.7548C31.7695 34.9404 31.7506 35.132 31.6806 35.3074C31.6107 35.4827 31.4925 35.6347 31.3397 35.7457C31.187 35.8567 31.006 35.9221 30.8176 35.9346C30.6292 35.947 30.4411 35.9058 30.2752 35.8158L22.5522 31.5348C22.4038 31.4525 22.2369 31.4093 22.0672 31.4093C21.8975 31.4093 21.7306 31.4525 21.5822 31.5348L13.8632 35.8148C13.697 35.9068 13.5081 35.9496 13.3185 35.9382C13.129 35.9268 12.9465 35.8616 12.7927 35.7503C12.6388 35.639 12.5197 35.4862 12.4495 35.3097C12.3793 35.1332 12.3608 34.9404 12.3962 34.7538L14.0562 26.0158C14.087 25.8505 14.0757 25.6801 14.0233 25.5204C13.9709 25.3606 13.879 25.2166 13.7562 25.1018L7.31317 19.0108C7.17541 18.8806 7.07749 18.714 7.0308 18.5303C6.98412 18.3466 6.99061 18.1534 7.04951 17.9732C7.10841 17.7931 7.21729 17.6334 7.36347 17.5127C7.50966 17.3921 7.68712 17.3155 7.87517 17.2918L16.6332 16.1828C16.8008 16.1617 16.9604 16.0984 17.097 15.9989C17.2335 15.8994 17.3427 15.7669 17.4142 15.6138L21.1612 7.57779Z" fill="white"/>
</svg>
