<svg width="52" height="52" viewBox="0 0 52 52" fill="none" xmlns="http://www.w3.org/2000/svg">
<g filter="url(#filter0_d_384_4978)">
<rect x="0" y="0" width="52" height="52" rx="26" fill="url(#paint0_linear_384_4978)"/>
</g>
<path d="M19 32H32.9998" stroke="white" stroke-width="2" stroke-linecap="round"/>
<path d="M30.2482 21.83L23.0321 29.046C22.9196 29.1585 22.767 29.2217 22.6079 29.2217L19.5484 29.2217C19.217 29.2217 18.9484 28.9531 18.9484 28.6217L18.9484 25.5622C18.9484 25.4031 19.0116 25.2505 19.1241 25.138L26.3401 17.922C26.5745 17.6876 26.9544 17.6876 27.1887 17.922L30.2482 20.9814C30.4825 21.2158 30.4825 21.5957 30.2482 21.83Z" fill="white"/>
<defs>
<filter id="filter0_d_384_4978" x="0" y="0" width="52" height="52" filterUnits="userSpaceOnUse" color-interpolation-filters="sRGB">
<feFlood flood-opacity="0" result="BackgroundImageFix"/>
<feColorMatrix in="SourceAlpha" type="matrix" values="0 0 0 0 0 0 0 0 0 0 0 0 0 0 0 0 0 0 127 0" result="hardAlpha"/>
<feOffset/>
<feGaussianBlur stdDeviation="5"/>
<feComposite in2="hardAlpha" operator="out"/>
<feColorMatrix type="matrix" values="0 0 0 0 0 0 0 0 0 0 0 0 0 0 0 0 0 0 0.15 0"/>
<feBlend mode="normal" in2="BackgroundImageFix" result="effect1_dropShadow_384_4978"/>
<feBlend mode="normal" in="SourceGraphic" in2="effect1_dropShadow_384_4978" result="shape"/>
</filter>
<linearGradient id="paint0_linear_384_4978" x1="10" y1="10" x2="42" y2="42" gradientUnits="userSpaceOnUse">
<stop stop-color="#E8B9FF"/>
<stop offset="1" stop-color="#A877C8"/>
</linearGradient>
</defs>
</svg>
