<svg width="24" height="24" viewBox="0 0 24 24" fill="none" xmlns="http://www.w3.org/2000/svg">
<path d="M6.43381 10.4014C6.42106 9.41781 6.69983 8.45251 7.23487 7.62757C7.7699 6.80263 8.53716 6.1551 9.43965 5.76686C10.3421 5.37863 11.3393 5.26711 12.3051 5.44643C13.2708 5.62574 14.1618 6.08783 14.8653 6.77425C15.5689 7.46068 16.0534 8.34062 16.2576 9.30282C16.4618 10.265 16.3765 11.2662 16.0126 12.1799C15.6486 13.0936 15.0223 13.8786 14.2129 14.4358C13.4034 14.993 12.4472 15.2973 11.465 15.3102C10.8128 15.3189 10.1653 15.1989 9.55941 14.957C8.95354 14.715 8.40118 14.3559 7.9339 13.9001C7.46661 13.4444 7.09354 12.9009 6.836 12.3008C6.57846 11.7006 6.44149 11.0555 6.43291 10.4023L6.43381 10.4014ZM18.7943 16.8016L16.3719 14.3747C17.3891 13.0966 17.8787 11.4768 17.7401 9.84838C17.6015 8.21992 16.8453 6.70651 15.6268 5.61928C14.4084 4.53204 12.8203 3.95362 11.1891 4.00291C9.55794 4.0522 8.00759 4.72547 6.8568 5.8843C5.70602 7.04313 5.04224 8.59945 5.00195 10.2333C4.96165 11.8672 5.54789 13.4544 6.64015 14.6687C7.73241 15.8831 9.24767 16.6322 10.8744 16.7621C12.5012 16.8919 14.1158 16.3927 15.3864 15.3671L17.8034 17.7904C17.9317 17.9214 18.1062 17.9966 18.2894 17.9999C18.4725 18.0032 18.6496 17.9342 18.7825 17.8079C18.9154 17.6816 18.9933 17.508 18.9996 17.3247C19.0058 17.1413 18.9399 16.9628 18.8159 16.8277L18.7907 16.8025L18.7943 16.8016Z" fill="white"/>
</svg>
