<svg xmlns="http://www.w3.org/2000/svg" width="38" height="34" viewBox="0 0 38 34">
  <g id="Octagon_变亮" data-name="Octagon 变亮" transform="translate(-602 -667)">
    <rect id="矩形_2265" data-name="矩形 2265" width="38" height="34" transform="translate(602 667)" fill="#fff" opacity="0"/>
    <g id="多边形_20" data-name="多边形 20" transform="translate(609.5 672)" fill="none">
      <path d="M15.435,0a2,2,0,0,1,1.414.586l5.565,5.565A2,2,0,0,1,23,7.565v7.87a2,2,0,0,1-.586,1.414l-5.565,5.565A2,2,0,0,1,15.435,23H7.565a2,2,0,0,1-1.414-.586L.586,16.849A2,2,0,0,1,0,15.435V7.565A2,2,0,0,1,.586,6.151L6.151.586A2,2,0,0,1,7.565,0Z" stroke="none"/>
      <path d="M 7.564970970153809 2 L 2.000001907348633 7.564970016479492 L 2.000001907348633 15.43502998352051 L 7.564970970153809 21 L 15.43503093719482 21 L 21 15.43502998352051 L 21 7.564970016479492 L 15.43503093719482 2 L 7.564970970153809 2 M 7.564970970153809 0 L 15.43503093719482 0 C 15.96546077728271 0 16.47417068481445 0.2107200622558594 16.84924125671387 0.5857906341552734 L 22.41421127319336 6.150760650634766 C 22.78929138183594 6.525829315185547 23 7.034540176391602 23 7.564970016479492 L 23 15.43502998352051 C 23 15.9654598236084 22.78928184509277 16.47417068481445 22.41421127319336 16.84923934936523 L 16.84924125671387 22.41420936584473 C 16.47417068481445 22.7892894744873 15.96546077728271 23 15.43503093719482 23 L 7.564970970153809 23 C 7.034541130065918 23 6.52583122253418 22.7892894744873 6.150760650634766 22.41420936584473 L 0.5857906341552734 16.84923934936523 C 0.2107105255126953 16.47417068481445 1.9073486328125e-06 15.9654598236084 1.9073486328125e-06 15.43502998352051 L 1.9073486328125e-06 7.564970016479492 C 1.9073486328125e-06 7.034540176391602 0.2107105255126953 6.525829315185547 0.5857906341552734 6.150749206542969 L 6.150760650634766 0.5857906341552734 C 6.52583122253418 0.2107105255126953 7.034541130065918 0 7.564970970153809 0 Z" stroke="none" fill="#fff"/>
    </g>
  </g>
</svg>
