<svg xmlns="http://www.w3.org/2000/svg" width="38" height="34" viewBox="0 0 38 34">
  <g id="Star_变亮" data-name="Star 变亮" transform="translate(-438 -747)">
    <rect id="矩形_2265" data-name="矩形 2265" width="38" height="34" transform="translate(438 747)" fill="#fff" opacity="0"/>
    <g id="多边形_20" data-name="多边形 20" transform="translate(443.5 751)" fill="none">
      <path d="M12.654,1.34a1,1,0,0,1,1.691,0l3.661,5.8a1,1,0,0,0,.617.44l6.757,1.587A1,1,0,0,1,25.9,10.8l-4.481,5.12a1,1,0,0,0-.244.738l.536,6.732a1,1,0,0,1-1.37,1.007l-6.472-2.6a1,1,0,0,0-.746,0L6.655,24.4a1,1,0,0,1-1.37-1.007l.536-6.732a1,1,0,0,0-.244-.738L1.1,10.8a1,1,0,0,1,.524-1.632L8.376,7.582a1,1,0,0,0,.617-.44Z" stroke="none"/>
      <path d="M 13.5 3.747819900512695 L 10.68490982055664 8.209123611450195 C 10.26223945617676 8.878982543945312 9.604799270629883 9.347633361816406 8.833740234375 9.52872371673584 L 3.696249008178711 10.73540592193604 L 7.081819534301758 14.60334300994873 C 7.611640930175781 15.20863342285156 7.878850936889648 16.01568222045898 7.814950942993164 16.81757354736328 L 7.40675163269043 21.93984985351562 L 12.38099002838135 19.94018363952637 C 12.73836040496826 19.79652404785156 13.11485004425049 19.72367286682129 13.5 19.72367286682129 C 13.8851203918457 19.72367286682129 14.26159000396729 19.79651260375977 14.61898040771484 19.9401741027832 L 19.59324645996094 21.93985366821289 L 19.18505096435547 16.81756210327148 C 19.12115097045898 16.01568222045898 19.38835906982422 15.20863342285156 19.91815948486328 14.60336303710938 L 23.30375671386719 10.73540782928467 L 18.16629028320312 9.528733253479004 C 17.39522933959961 9.34764289855957 16.7378101348877 8.879022598266602 16.31509017944336 8.209142684936523 L 13.5 3.747819900512695 M 13.5 0.8739051818847656 C 13.8247652053833 0.8739051818847656 14.1495304107666 1.02935791015625 14.34570980072021 1.340263366699219 L 18.00650978088379 7.141853332519531 C 18.14653015136719 7.363742828369141 18.36814117431641 7.521722793579102 18.62356948852539 7.58171272277832 L 25.38052940368652 9.168773651123047 C 26.1147403717041 9.341222763061523 26.40106964111328 10.23340320587158 25.90434074401855 10.80091285705566 L 21.42309951782227 15.92062282562256 C 21.24542045593262 16.12361335754395 21.15729904174805 16.38977432250977 21.17873001098633 16.65868377685547 L 21.71519088745117 23.39048385620117 C 21.77417945861816 24.13069343566895 21.03432846069336 24.67472267150879 20.34535980224609 24.39776420593262 L 13.87298965454102 21.79584312438965 C 13.63364028930664 21.69962310791016 13.36635971069336 21.69962310791016 13.12701034545898 21.79584312438965 L 6.654640197753906 24.39776420593262 C 5.965667724609375 24.67472267150879 5.225818634033203 24.13069343566895 5.284809112548828 23.39048385620117 L 5.821269989013672 16.65869331359863 C 5.84269905090332 16.38977432250977 5.754579544067383 16.12361335754395 5.576900482177734 15.92062282562256 L 1.095659255981445 10.80091285705566 C 0.5989208221435547 10.23340320587158 0.8852596282958984 9.341222763061523 1.619470596313477 9.168773651123047 L 8.376430511474609 7.58171272277832 C 8.63184928894043 7.521722793579102 8.853469848632812 7.363742828369141 8.993480682373047 7.141853332519531 L 12.65429019927979 1.340263366699219 C 12.8504695892334 1.02935791015625 13.1752347946167 0.8739051818847656 13.5 0.8739051818847656 Z" stroke="none" fill="#fff"/>
    </g>
  </g>
</svg>
