<svg xmlns="http://www.w3.org/2000/svg" width="19" height="19" viewBox="0 0 19 19">
  <g id="Image" transform="translate(-1213 -3703)">
    <rect id="矩形_1541" data-name="矩形 1541" width="19" height="19" transform="translate(1213 3703)" fill="#fff" opacity="0"/>
    <g id="组_6028" data-name="组 6028" transform="translate(816.882 3617.852)">
      <path id="矩形_2282" data-name="矩形 2282" d="M1.794.9a.9.9,0,0,0-.9.9V9.868a.9.9,0,0,0,.9.9H13.457a.9.9,0,0,0,.9-.9V1.794a.9.9,0,0,0-.9-.9H1.794m0-.9H13.457a1.794,1.794,0,0,1,1.794,1.794V9.868a1.794,1.794,0,0,1-1.794,1.794H1.794A1.794,1.794,0,0,1,0,9.868V1.794A1.794,1.794,0,0,1,1.794,0Z" transform="translate(397.992 88.817)" fill="#ddd"/>
      <g id="组_5183" data-name="组 5183" transform="translate(400.026 90.952)">
        <path id="路径_729" data-name="路径 729" d="M203.122,323.564h9.623c.391,0,.708-.225.708-.5v-4.7c0-.465-.81-.682-1.241-.332l-3.789,3.074a.922.922,0,0,1-.946.077l-1.611-.826a.908.908,0,0,0-.988.114l-2.329,2.294C202.21,323.1,202.544,323.564,203.122,323.564Z" transform="translate(-202.412 -316.607)" fill="#ddd"/>
        <path id="路径_730" data-name="路径 730" d="M288.329,220.54m-1.148,0a1.148,1.148,0,1,0,1.148-1.148A1.148,1.148,0,0,0,287.181,220.54Z" transform="translate(-286.102 -219.391)" fill="#ddd"/>
      </g>
    </g>
  </g>
</svg>
