<svg id="IR内子组件-选中" xmlns="http://www.w3.org/2000/svg" width="19" height="19" viewBox="0 0 19 19">
  <rect id="矩形_1540" data-name="矩形 1540" width="19" height="19" fill="#fff" opacity="0"/>
  <path id="路径_958" data-name="路径 958" d="M94.694,72a2.458,2.458,0,0,0-2.4,2.456v.535h-1.8A2.486,2.486,0,0,0,88,77.478v2.715h1.841a1.394,1.394,0,1,1,0,2.787H88v2.81a2.486,2.486,0,0,0,2.487,2.486h2.745V86.56a1.419,1.419,0,0,1,2.838,0v1.716h2.818a2.486,2.486,0,0,0,2.446-2.485V84.033h.582a2.377,2.377,0,0,0,2.377-2.376v-.039a2.377,2.377,0,0,0-2.377-2.337h-.582V77.437a2.486,2.486,0,0,0-2.487-2.445H97.132l.012-.543q0-.033,0-.065A2.4,2.4,0,0,0,94.734,72h-.04Zm.046,1.114A1.282,1.282,0,0,1,96.03,74.39q0,.017,0,.035l-.037,1.682h2.855a1.372,1.372,0,0,1,1.372,1.371v2.917h1.7a1.262,1.262,0,1,1,0,2.524h-1.7v2.894a1.372,1.372,0,0,1-1.372,1.349H97.186v-.6a2.533,2.533,0,0,0-2.534-2.533H94.61a2.533,2.533,0,0,0-2.492,2.532v.6H90.464a1.372,1.372,0,0,1-1.349-1.371v-1.7h.727a2.509,2.509,0,0,0,2.509-2.508v-.041a2.509,2.509,0,0,0-2.509-2.467h-.727v-1.6a1.372,1.372,0,0,1,1.372-1.371H93.4V74.457a1.343,1.343,0,0,1,1.336-1.343Z" transform="translate(-86.121 -70.831)" fill="#fff"/>
</svg>
