<svg xmlns="http://www.w3.org/2000/svg" width="18" height="18" viewBox="0 0 18 18">
  <g id="锁定hover" transform="translate(-260 -137)">
    <rect id="矩形_2703" data-name="矩形 2703" width="18" height="18" rx="2" transform="translate(260 137)" fill="#fff" opacity="0.2"/>
    <g id="组_5209" data-name="组 5209" transform="translate(28.959 16.336)">
      <path id="路径_736" data-name="路径 736" d="M245.328,468.729a.947.947,0,0,0-.693-.291h-9.2a.923.923,0,0,0-.686.291.959.959,0,0,0-.283.693V473.1a1.928,1.928,0,0,0,.127.7,1.734,1.734,0,0,0,1.648,1.119h7.532a1.778,1.778,0,0,0,1.32-.559,1.943,1.943,0,0,0,.388-.611,1.99,1.99,0,0,0,.142-.753v-3.572A.947.947,0,0,0,245.328,468.729Zm-4.939,3.421v1.8a.348.348,0,0,1-.7,0v-1.8a1.063,1.063,0,1,1,.7,0Z" transform="translate(0 -339.657)" fill="#fff"/>
      <path id="路径_737" data-name="路径 737" d="M335.049,127.206a2.02,2.02,0,0,1,.492-1.454,1.713,1.713,0,0,1,1.3-.515,1.93,1.93,0,0,1,1.417.515,1.95,1.95,0,0,1,.522,1.454v.724h1.8v-1.141a2.974,2.974,0,0,0-.306-1.335,3.656,3.656,0,0,0-.82-1.089,3.9,3.9,0,0,0-1.178-.738,3.645,3.645,0,0,0-1.379-.268,4,4,0,0,0-1.484.268,3.67,3.67,0,0,0-1.178.738,3.455,3.455,0,0,0-.783,1.089,3.168,3.168,0,0,0-.283,1.335v1.141h1.879v-.724Z" transform="translate(-96.842 0.851)" fill="#fff"/>
    </g>
  </g>
</svg>
