<svg id="Shape" xmlns="http://www.w3.org/2000/svg" width="19" height="19" viewBox="0 0 19 19">
  <rect id="矩形_1540" data-name="矩形 1540" width="19" height="19" fill="#fff" opacity="0"/>
  <g id="多边形_73" data-name="多边形 73" transform="translate(1 1)" fill="none">
    <path d="M7.332.839a2,2,0,0,1,2.335,0L15.81,5.256A2,2,0,0,1,16.543,7.5l-2.338,7.12A2,2,0,0,1,12.3,16H4.7a2,2,0,0,1-1.9-1.376L.457,7.5A2,2,0,0,1,1.19,5.256Z" stroke="none"/>
    <path d="M 8.5 1.463294982910156 C 8.289219856262207 1.463294982910156 8.087360382080078 1.528325080871582 7.916230201721191 1.651374816894531 L 1.7735595703125 6.067924499511719 C 1.417739868164062 6.323764801025391 1.270520210266113 6.775404930114746 1.407230377197266 7.191784858703613 L 3.744990348815918 14.31194496154785 C 3.880109786987305 14.72349452972412 4.261930465698242 15.00000476837158 4.695090293884277 15.00000476837158 L 12.30491065979004 15.00000476837158 C 12.73806953430176 15.00000476837158 13.1198902130127 14.72349452972412 13.25500965118408 14.31194496154785 L 15.59276962280273 7.191784858703613 C 15.72947978973389 6.775404930114746 15.58226013183594 6.323764801025391 15.2264404296875 6.067924499511719 L 9.083749771118164 1.651365280151367 C 8.912630081176758 1.528325080871582 8.710769653320312 1.463294982910156 8.5 1.463294982910156 M 8.499999046325684 0.463292121887207 C 8.909375190734863 0.463292121887207 9.318750381469727 0.5886802673339844 9.667530059814453 0.8394546508789062 L 15.81021022796631 5.25600528717041 C 16.51851081848145 5.765275001525879 16.81501007080078 6.674884796142578 16.54286956787109 7.503734588623047 L 14.20511054992676 14.62389469146729 C 13.9355297088623 15.44495487213135 13.16909027099609 16.0000057220459 12.30491065979004 16.0000057220459 L 4.695090293884277 16.0000057220459 C 3.830909729003906 16.0000057220459 3.064470291137695 15.44495487213135 2.794890403747559 14.62389469146729 L 0.4571304321289062 7.503734588623047 C 0.1849899291992188 6.674884796142578 0.4814891815185547 5.765275001525879 1.189789772033691 5.25600528717041 L 7.332460403442383 0.8394546508789062 C 7.681244850158691 0.5886802673339844 8.090622901916504 0.463292121887207 8.499999046325684 0.463292121887207 Z" stroke="none" fill="#ddd"/>
  </g>
</svg>
