<svg xmlns="http://www.w3.org/2000/svg" width="18" height="18" viewBox="0 0 18 18">
  <g id="不可见开启" transform="translate(-286 -137)">
    <rect id="矩形_2704" data-name="矩形 2704" width="18" height="18" rx="2" transform="translate(286 137)" fill="#fff" opacity="0"/>
    <path id="路径_738" data-name="路径 738" d="M49.148,130.357a2.947,2.947,0,0,1,2.946,2.946,2.86,2.86,0,0,1-.212,1.078L53.6,136.1a6.963,6.963,0,0,0,2.021-2.8,6.969,6.969,0,0,0-6.481-4.419,6.862,6.862,0,0,0-2.345.412l1.273,1.273A2.86,2.86,0,0,1,49.148,130.357Zm-5.892-1.609,1.343,1.343.271.271a6.955,6.955,0,0,0-2.2,2.94,6.966,6.966,0,0,0,9.062,3.924l.247.247L53.7,139.2l.748-.748L44,128Zm3.258,3.258.913.913a1.662,1.662,0,0,0-.047.383,1.765,1.765,0,0,0,1.768,1.768,1.662,1.662,0,0,0,.383-.047l.913.913a2.927,2.927,0,0,1-3.93-3.93Zm2.54-.46L50.91,133.4l.012-.094a1.765,1.765,0,0,0-1.768-1.768Z" transform="translate(245.855 12.402)" fill="#fff"/>
  </g>
</svg>
