<svg width="236" height="128" viewBox="0 0 236 128" fill="none" xmlns="http://www.w3.org/2000/svg">
<rect x="0.5" y="28.5" width="235" height="99" stroke="white" stroke-dasharray="5 5"/>
<path d="M24.2812 15.4453V17H18.5703V15.4453H24.2812ZM19.1172 5.625V17H17.1562V5.625H19.1172ZM30.375 15.3047V11.2734C30.375 10.9714 30.3203 10.7109 30.2109 10.4922C30.1016 10.2734 29.9349 10.1042 29.7109 9.98438C29.4922 9.86458 29.2161 9.80469 28.8828 9.80469C28.5755 9.80469 28.3099 9.85677 28.0859 9.96094C27.862 10.0651 27.6875 10.2057 27.5625 10.3828C27.4375 10.5599 27.375 10.7604 27.375 10.9844H25.5C25.5 10.651 25.5807 10.3281 25.7422 10.0156C25.9036 9.70312 26.138 9.42448 26.4453 9.17969C26.7526 8.9349 27.1198 8.74219 27.5469 8.60156C27.974 8.46094 28.4531 8.39062 28.9844 8.39062C29.6198 8.39062 30.1823 8.4974 30.6719 8.71094C31.1667 8.92448 31.5547 9.2474 31.8359 9.67969C32.1224 10.1068 32.2656 10.6432 32.2656 11.2891V15.0469C32.2656 15.4323 32.2917 15.7786 32.3438 16.0859C32.401 16.388 32.4818 16.651 32.5859 16.875V17H30.6562C30.5677 16.7969 30.4974 16.5391 30.4453 16.2266C30.3984 15.9089 30.375 15.6016 30.375 15.3047ZM30.6484 11.8594L30.6641 13.0234H29.3125C28.9635 13.0234 28.6562 13.0573 28.3906 13.125C28.125 13.1875 27.9036 13.2812 27.7266 13.4062C27.5495 13.5312 27.4167 13.6823 27.3281 13.8594C27.2396 14.0365 27.1953 14.237 27.1953 14.4609C27.1953 14.6849 27.2474 14.8906 27.3516 15.0781C27.4557 15.2604 27.6068 15.4036 27.8047 15.5078C28.0078 15.612 28.2526 15.6641 28.5391 15.6641C28.9245 15.6641 29.2604 15.5859 29.5469 15.4297C29.8385 15.2682 30.0677 15.0729 30.2344 14.8438C30.401 14.6094 30.4896 14.388 30.5 14.1797L31.1094 15.0156C31.0469 15.2292 30.9401 15.4583 30.7891 15.7031C30.638 15.9479 30.4401 16.1823 30.1953 16.4062C29.9557 16.625 29.6667 16.8047 29.3281 16.9453C28.9948 17.0859 28.6094 17.1562 28.1719 17.1562C27.6198 17.1562 27.1276 17.0469 26.6953 16.8281C26.263 16.6042 25.9245 16.3047 25.6797 15.9297C25.4349 15.5495 25.3125 15.1198 25.3125 14.6406C25.3125 14.1927 25.3958 13.7969 25.5625 13.4531C25.7344 13.1042 25.9844 12.8125 26.3125 12.5781C26.6458 12.3438 27.0521 12.1667 27.5312 12.0469C28.0104 11.9219 28.5573 11.8594 29.1719 11.8594H30.6484ZM34.2422 5H36.125V15.1953L35.9453 17H34.2422V5ZM41.6406 12.6953V12.8594C41.6406 13.4844 41.5703 14.0599 41.4297 14.5859C41.2943 15.1068 41.0859 15.5599 40.8047 15.9453C40.5286 16.3307 40.1849 16.6302 39.7734 16.8438C39.3672 17.0521 38.8958 17.1562 38.3594 17.1562C37.8333 17.1562 37.375 17.0573 36.9844 16.8594C36.5938 16.6615 36.2656 16.3802 36 16.0156C35.7396 15.651 35.5286 15.2161 35.3672 14.7109C35.2057 14.2057 35.0911 13.6484 35.0234 13.0391V12.5156C35.0911 11.901 35.2057 11.3438 35.3672 10.8438C35.5286 10.3385 35.7396 9.90365 36 9.53906C36.2656 9.16927 36.5911 8.88542 36.9766 8.6875C37.3672 8.48958 37.8229 8.39062 38.3438 8.39062C38.8854 8.39062 39.362 8.49479 39.7734 8.70312C40.1901 8.91146 40.5365 9.20833 40.8125 9.59375C41.0885 9.97396 41.2943 10.4271 41.4297 10.9531C41.5703 11.4792 41.6406 12.0599 41.6406 12.6953ZM39.7578 12.8594V12.6953C39.7578 12.3151 39.7266 11.9583 39.6641 11.625C39.6016 11.2865 39.4974 10.9896 39.3516 10.7344C39.2109 10.4792 39.0182 10.2786 38.7734 10.1328C38.5339 9.98177 38.2344 9.90625 37.875 9.90625C37.5417 9.90625 37.2552 9.96354 37.0156 10.0781C36.776 10.1927 36.5755 10.349 36.4141 10.5469C36.2526 10.7448 36.125 10.974 36.0312 11.2344C35.9427 11.4948 35.8828 11.776 35.8516 12.0781V13.4922C35.8984 13.8828 35.9974 14.2422 36.1484 14.5703C36.3047 14.8932 36.5234 15.1536 36.8047 15.3516C37.0859 15.5443 37.4479 15.6406 37.8906 15.6406C38.2396 15.6406 38.5339 15.5703 38.7734 15.4297C39.013 15.2891 39.2031 15.0938 39.3438 14.8438C39.4896 14.5885 39.5938 14.2917 39.6562 13.9531C39.724 13.6146 39.7578 13.25 39.7578 12.8594ZM46.9609 17.1562C46.3359 17.1562 45.7708 17.0547 45.2656 16.8516C44.7656 16.6432 44.3385 16.3542 43.9844 15.9844C43.6354 15.6146 43.3672 15.1797 43.1797 14.6797C42.9922 14.1797 42.8984 13.6406 42.8984 13.0625V12.75C42.8984 12.0885 42.9948 11.4896 43.1875 10.9531C43.3802 10.4167 43.6484 9.95833 43.9922 9.57812C44.3359 9.19271 44.7422 8.89844 45.2109 8.69531C45.6797 8.49219 46.1875 8.39062 46.7344 8.39062C47.3385 8.39062 47.8672 8.49219 48.3203 8.69531C48.7734 8.89844 49.1484 9.1849 49.4453 9.55469C49.7474 9.91927 49.9714 10.3542 50.1172 10.8594C50.2682 11.3646 50.3438 11.9219 50.3438 12.5312V13.3359H43.8125V11.9844H48.4844V11.8359C48.474 11.4974 48.4062 11.1797 48.2812 10.8828C48.1615 10.5859 47.9766 10.3464 47.7266 10.1641C47.4766 9.98177 47.1432 9.89062 46.7266 9.89062C46.4141 9.89062 46.1354 9.95833 45.8906 10.0938C45.651 10.224 45.4505 10.4141 45.2891 10.6641C45.1276 10.9141 45.0026 11.2161 44.9141 11.5703C44.8307 11.9193 44.7891 12.3125 44.7891 12.75V13.0625C44.7891 13.4323 44.8385 13.776 44.9375 14.0938C45.0417 14.4062 45.1927 14.6797 45.3906 14.9141C45.5885 15.1484 45.8281 15.3333 46.1094 15.4688C46.3906 15.599 46.7109 15.6641 47.0703 15.6641C47.5234 15.6641 47.9271 15.5729 48.2812 15.3906C48.6354 15.2083 48.9427 14.9505 49.2031 14.6172L50.1953 15.5781C50.013 15.8438 49.776 16.099 49.4844 16.3438C49.1927 16.5833 48.8359 16.7786 48.4141 16.9297C47.9974 17.0807 47.513 17.1562 46.9609 17.1562ZM53.8281 5V17H51.9375V5H53.8281ZM60.9219 5.58594V17H59.0391V7.82031L56.25 8.76562V7.21094L60.6953 5.58594H60.9219Z" fill="#C698DC"/>
<path d="M96.2188 15.7734V17H90.5312V15.7734H96.2188ZM90.8281 5.625V17H89.3203V5.625H90.8281ZM102.711 15.5547V11.2031C102.711 10.8698 102.643 10.5807 102.508 10.3359C102.378 10.0859 102.18 9.89323 101.914 9.75781C101.648 9.6224 101.32 9.55469 100.93 9.55469C100.565 9.55469 100.245 9.61719 99.9688 9.74219C99.6979 9.86719 99.4844 10.0312 99.3281 10.2344C99.1771 10.4375 99.1016 10.6562 99.1016 10.8906H97.6562C97.6562 10.5885 97.7344 10.2891 97.8906 9.99219C98.0469 9.69531 98.2708 9.42708 98.5625 9.1875C98.8594 8.94271 99.2135 8.75 99.625 8.60938C100.042 8.46354 100.505 8.39062 101.016 8.39062C101.63 8.39062 102.172 8.49479 102.641 8.70312C103.115 8.91146 103.484 9.22656 103.75 9.64844C104.021 10.0651 104.156 10.5885 104.156 11.2188V15.1562C104.156 15.4375 104.18 15.737 104.227 16.0547C104.279 16.3724 104.354 16.6458 104.453 16.875V17H102.945C102.872 16.8333 102.815 16.612 102.773 16.3359C102.732 16.0547 102.711 15.7943 102.711 15.5547ZM102.961 11.875L102.977 12.8906H101.516C101.104 12.8906 100.737 12.9245 100.414 12.9922C100.091 13.0547 99.8203 13.151 99.6016 13.2812C99.3828 13.4115 99.2161 13.5755 99.1016 13.7734C98.987 13.9661 98.9297 14.1927 98.9297 14.4531C98.9297 14.7188 98.9896 14.9609 99.1094 15.1797C99.2292 15.3984 99.4089 15.5729 99.6484 15.7031C99.8932 15.8281 100.193 15.8906 100.547 15.8906C100.99 15.8906 101.38 15.7969 101.719 15.6094C102.057 15.4219 102.326 15.1927 102.523 14.9219C102.727 14.651 102.836 14.388 102.852 14.1328L103.469 14.8281C103.432 15.0469 103.333 15.2891 103.172 15.5547C103.01 15.8203 102.794 16.0755 102.523 16.3203C102.258 16.5599 101.94 16.7604 101.57 16.9219C101.206 17.0781 100.794 17.1562 100.336 17.1562C99.763 17.1562 99.2604 17.0443 98.8281 16.8203C98.401 16.5964 98.0677 16.2969 97.8281 15.9219C97.5938 15.5417 97.4766 15.1172 97.4766 14.6484C97.4766 14.1953 97.5651 13.7969 97.7422 13.4531C97.9193 13.1042 98.1745 12.8151 98.5078 12.5859C98.8411 12.3516 99.2422 12.1745 99.7109 12.0547C100.18 11.9349 100.703 11.875 101.281 11.875H102.961ZM106.422 5H107.875V15.3594L107.75 17H106.422V5ZM113.586 12.7031V12.8672C113.586 13.4818 113.513 14.0521 113.367 14.5781C113.221 15.099 113.008 15.5521 112.727 15.9375C112.445 16.3229 112.102 16.6224 111.695 16.8359C111.289 17.0495 110.823 17.1562 110.297 17.1562C109.76 17.1562 109.289 17.0651 108.883 16.8828C108.482 16.6953 108.143 16.4271 107.867 16.0781C107.591 15.7292 107.37 15.3073 107.203 14.8125C107.042 14.3177 106.93 13.7604 106.867 13.1406V12.4219C106.93 11.7969 107.042 11.237 107.203 10.7422C107.37 10.2474 107.591 9.82552 107.867 9.47656C108.143 9.1224 108.482 8.85417 108.883 8.67188C109.284 8.48438 109.75 8.39062 110.281 8.39062C110.812 8.39062 111.284 8.49479 111.695 8.70312C112.107 8.90625 112.451 9.19792 112.727 9.57812C113.008 9.95833 113.221 10.4141 113.367 10.9453C113.513 11.4714 113.586 12.0573 113.586 12.7031ZM112.133 12.8672V12.7031C112.133 12.2812 112.094 11.8854 112.016 11.5156C111.938 11.1406 111.812 10.8125 111.641 10.5312C111.469 10.2448 111.242 10.0208 110.961 9.85938C110.68 9.69271 110.333 9.60938 109.922 9.60938C109.557 9.60938 109.24 9.67188 108.969 9.79688C108.703 9.92188 108.477 10.0911 108.289 10.3047C108.102 10.513 107.948 10.7526 107.828 11.0234C107.714 11.2891 107.628 11.5651 107.57 11.8516V13.7344C107.654 14.099 107.789 14.4505 107.977 14.7891C108.169 15.1224 108.424 15.3958 108.742 15.6094C109.065 15.8229 109.464 15.9297 109.938 15.9297C110.328 15.9297 110.661 15.8516 110.938 15.6953C111.219 15.5339 111.445 15.3125 111.617 15.0312C111.794 14.75 111.924 14.4245 112.008 14.0547C112.091 13.6849 112.133 13.2891 112.133 12.8672ZM118.922 17.1562C118.333 17.1562 117.799 17.0573 117.32 16.8594C116.846 16.6562 116.438 16.3724 116.094 16.0078C115.755 15.6432 115.495 15.2109 115.312 14.7109C115.13 14.2109 115.039 13.6641 115.039 13.0703V12.7422C115.039 12.0547 115.141 11.4427 115.344 10.9062C115.547 10.3646 115.823 9.90625 116.172 9.53125C116.521 9.15625 116.917 8.8724 117.359 8.67969C117.802 8.48698 118.26 8.39062 118.734 8.39062C119.339 8.39062 119.859 8.49479 120.297 8.70312C120.74 8.91146 121.102 9.20312 121.383 9.57812C121.664 9.94792 121.872 10.3854 122.008 10.8906C122.143 11.3906 122.211 11.9375 122.211 12.5312V13.1797H115.898V12H120.766V11.8906C120.745 11.5156 120.667 11.151 120.531 10.7969C120.401 10.4427 120.193 10.151 119.906 9.92188C119.62 9.69271 119.229 9.57812 118.734 9.57812C118.406 9.57812 118.104 9.64844 117.828 9.78906C117.552 9.92448 117.315 10.1276 117.117 10.3984C116.919 10.6693 116.766 11 116.656 11.3906C116.547 11.7812 116.492 12.2318 116.492 12.7422V13.0703C116.492 13.4714 116.547 13.849 116.656 14.2031C116.771 14.5521 116.935 14.8594 117.148 15.125C117.367 15.3906 117.63 15.599 117.938 15.75C118.25 15.901 118.604 15.9766 119 15.9766C119.51 15.9766 119.943 15.8724 120.297 15.6641C120.651 15.4557 120.961 15.1771 121.227 14.8281L122.102 15.5234C121.919 15.7995 121.688 16.0625 121.406 16.3125C121.125 16.5625 120.779 16.7656 120.367 16.9219C119.961 17.0781 119.479 17.1562 118.922 17.1562ZM125.469 5V17H124.016V5H125.469ZM135.086 15.8125V17H127.641V15.9609L131.367 11.8125C131.826 11.3021 132.18 10.8698 132.43 10.5156C132.685 10.1562 132.862 9.83594 132.961 9.55469C133.065 9.26823 133.117 8.97656 133.117 8.67969C133.117 8.30469 133.039 7.96615 132.883 7.66406C132.732 7.35677 132.508 7.11198 132.211 6.92969C131.914 6.7474 131.555 6.65625 131.133 6.65625C130.628 6.65625 130.206 6.75521 129.867 6.95312C129.534 7.14583 129.284 7.41667 129.117 7.76562C128.951 8.11458 128.867 8.51562 128.867 8.96875H127.422C127.422 8.32812 127.562 7.74219 127.844 7.21094C128.125 6.67969 128.542 6.25781 129.094 5.94531C129.646 5.6276 130.326 5.46875 131.133 5.46875C131.852 5.46875 132.466 5.59635 132.977 5.85156C133.487 6.10156 133.878 6.45573 134.148 6.91406C134.424 7.36719 134.562 7.89844 134.562 8.50781C134.562 8.84115 134.505 9.17969 134.391 9.52344C134.281 9.86198 134.128 10.2005 133.93 10.5391C133.737 10.8776 133.51 11.2109 133.25 11.5391C132.995 11.8672 132.721 12.1901 132.43 12.5078L129.383 15.8125H135.086Z" fill="white" fill-opacity="0.5"/>
<path d="M168.219 15.7734V17H162.531V15.7734H168.219ZM162.828 5.625V17H161.32V5.625H162.828ZM174.711 15.5547V11.2031C174.711 10.8698 174.643 10.5807 174.508 10.3359C174.378 10.0859 174.18 9.89323 173.914 9.75781C173.648 9.6224 173.32 9.55469 172.93 9.55469C172.565 9.55469 172.245 9.61719 171.969 9.74219C171.698 9.86719 171.484 10.0312 171.328 10.2344C171.177 10.4375 171.102 10.6562 171.102 10.8906H169.656C169.656 10.5885 169.734 10.2891 169.891 9.99219C170.047 9.69531 170.271 9.42708 170.562 9.1875C170.859 8.94271 171.214 8.75 171.625 8.60938C172.042 8.46354 172.505 8.39062 173.016 8.39062C173.63 8.39062 174.172 8.49479 174.641 8.70312C175.115 8.91146 175.484 9.22656 175.75 9.64844C176.021 10.0651 176.156 10.5885 176.156 11.2188V15.1562C176.156 15.4375 176.18 15.737 176.227 16.0547C176.279 16.3724 176.354 16.6458 176.453 16.875V17H174.945C174.872 16.8333 174.815 16.612 174.773 16.3359C174.732 16.0547 174.711 15.7943 174.711 15.5547ZM174.961 11.875L174.977 12.8906H173.516C173.104 12.8906 172.737 12.9245 172.414 12.9922C172.091 13.0547 171.82 13.151 171.602 13.2812C171.383 13.4115 171.216 13.5755 171.102 13.7734C170.987 13.9661 170.93 14.1927 170.93 14.4531C170.93 14.7188 170.99 14.9609 171.109 15.1797C171.229 15.3984 171.409 15.5729 171.648 15.7031C171.893 15.8281 172.193 15.8906 172.547 15.8906C172.99 15.8906 173.38 15.7969 173.719 15.6094C174.057 15.4219 174.326 15.1927 174.523 14.9219C174.727 14.651 174.836 14.388 174.852 14.1328L175.469 14.8281C175.432 15.0469 175.333 15.2891 175.172 15.5547C175.01 15.8203 174.794 16.0755 174.523 16.3203C174.258 16.5599 173.94 16.7604 173.57 16.9219C173.206 17.0781 172.794 17.1562 172.336 17.1562C171.763 17.1562 171.26 17.0443 170.828 16.8203C170.401 16.5964 170.068 16.2969 169.828 15.9219C169.594 15.5417 169.477 15.1172 169.477 14.6484C169.477 14.1953 169.565 13.7969 169.742 13.4531C169.919 13.1042 170.174 12.8151 170.508 12.5859C170.841 12.3516 171.242 12.1745 171.711 12.0547C172.18 11.9349 172.703 11.875 173.281 11.875H174.961ZM178.422 5H179.875V15.3594L179.75 17H178.422V5ZM185.586 12.7031V12.8672C185.586 13.4818 185.513 14.0521 185.367 14.5781C185.221 15.099 185.008 15.5521 184.727 15.9375C184.445 16.3229 184.102 16.6224 183.695 16.8359C183.289 17.0495 182.823 17.1562 182.297 17.1562C181.76 17.1562 181.289 17.0651 180.883 16.8828C180.482 16.6953 180.143 16.4271 179.867 16.0781C179.591 15.7292 179.37 15.3073 179.203 14.8125C179.042 14.3177 178.93 13.7604 178.867 13.1406V12.4219C178.93 11.7969 179.042 11.237 179.203 10.7422C179.37 10.2474 179.591 9.82552 179.867 9.47656C180.143 9.1224 180.482 8.85417 180.883 8.67188C181.284 8.48438 181.75 8.39062 182.281 8.39062C182.812 8.39062 183.284 8.49479 183.695 8.70312C184.107 8.90625 184.451 9.19792 184.727 9.57812C185.008 9.95833 185.221 10.4141 185.367 10.9453C185.513 11.4714 185.586 12.0573 185.586 12.7031ZM184.133 12.8672V12.7031C184.133 12.2812 184.094 11.8854 184.016 11.5156C183.938 11.1406 183.812 10.8125 183.641 10.5312C183.469 10.2448 183.242 10.0208 182.961 9.85938C182.68 9.69271 182.333 9.60938 181.922 9.60938C181.557 9.60938 181.24 9.67188 180.969 9.79688C180.703 9.92188 180.477 10.0911 180.289 10.3047C180.102 10.513 179.948 10.7526 179.828 11.0234C179.714 11.2891 179.628 11.5651 179.57 11.8516V13.7344C179.654 14.099 179.789 14.4505 179.977 14.7891C180.169 15.1224 180.424 15.3958 180.742 15.6094C181.065 15.8229 181.464 15.9297 181.938 15.9297C182.328 15.9297 182.661 15.8516 182.938 15.6953C183.219 15.5339 183.445 15.3125 183.617 15.0312C183.794 14.75 183.924 14.4245 184.008 14.0547C184.091 13.6849 184.133 13.2891 184.133 12.8672ZM190.922 17.1562C190.333 17.1562 189.799 17.0573 189.32 16.8594C188.846 16.6562 188.438 16.3724 188.094 16.0078C187.755 15.6432 187.495 15.2109 187.312 14.7109C187.13 14.2109 187.039 13.6641 187.039 13.0703V12.7422C187.039 12.0547 187.141 11.4427 187.344 10.9062C187.547 10.3646 187.823 9.90625 188.172 9.53125C188.521 9.15625 188.917 8.8724 189.359 8.67969C189.802 8.48698 190.26 8.39062 190.734 8.39062C191.339 8.39062 191.859 8.49479 192.297 8.70312C192.74 8.91146 193.102 9.20312 193.383 9.57812C193.664 9.94792 193.872 10.3854 194.008 10.8906C194.143 11.3906 194.211 11.9375 194.211 12.5312V13.1797H187.898V12H192.766V11.8906C192.745 11.5156 192.667 11.151 192.531 10.7969C192.401 10.4427 192.193 10.151 191.906 9.92188C191.62 9.69271 191.229 9.57812 190.734 9.57812C190.406 9.57812 190.104 9.64844 189.828 9.78906C189.552 9.92448 189.315 10.1276 189.117 10.3984C188.919 10.6693 188.766 11 188.656 11.3906C188.547 11.7812 188.492 12.2318 188.492 12.7422V13.0703C188.492 13.4714 188.547 13.849 188.656 14.2031C188.771 14.5521 188.935 14.8594 189.148 15.125C189.367 15.3906 189.63 15.599 189.938 15.75C190.25 15.901 190.604 15.9766 191 15.9766C191.51 15.9766 191.943 15.8724 192.297 15.6641C192.651 15.4557 192.961 15.1771 193.227 14.8281L194.102 15.5234C193.919 15.7995 193.688 16.0625 193.406 16.3125C193.125 16.5625 192.779 16.7656 192.367 16.9219C191.961 17.0781 191.479 17.1562 190.922 17.1562ZM197.469 5V17H196.016V5H197.469ZM201.742 10.6016H202.773C203.279 10.6016 203.695 10.5182 204.023 10.3516C204.357 10.1797 204.604 9.94792 204.766 9.65625C204.932 9.35938 205.016 9.02604 205.016 8.65625C205.016 8.21875 204.943 7.85156 204.797 7.55469C204.651 7.25781 204.432 7.03385 204.141 6.88281C203.849 6.73177 203.479 6.65625 203.031 6.65625C202.625 6.65625 202.266 6.73698 201.953 6.89844C201.646 7.05469 201.404 7.27865 201.227 7.57031C201.055 7.86198 200.969 8.20573 200.969 8.60156H199.523C199.523 8.02344 199.669 7.4974 199.961 7.02344C200.253 6.54948 200.661 6.17188 201.188 5.89062C201.719 5.60938 202.333 5.46875 203.031 5.46875C203.719 5.46875 204.32 5.59115 204.836 5.83594C205.352 6.07552 205.753 6.4349 206.039 6.91406C206.326 7.38802 206.469 7.97917 206.469 8.6875C206.469 8.97396 206.401 9.28125 206.266 9.60938C206.135 9.93229 205.93 10.2344 205.648 10.5156C205.372 10.7969 205.013 11.0286 204.57 11.2109C204.128 11.388 203.596 11.4766 202.977 11.4766H201.742V10.6016ZM201.742 11.7891V10.9219H202.977C203.701 10.9219 204.299 11.0078 204.773 11.1797C205.247 11.3516 205.62 11.5807 205.891 11.8672C206.167 12.1536 206.359 12.4688 206.469 12.8125C206.583 13.151 206.641 13.4896 206.641 13.8281C206.641 14.3594 206.549 14.8307 206.367 15.2422C206.19 15.6536 205.938 16.0026 205.609 16.2891C205.286 16.5755 204.906 16.7917 204.469 16.9375C204.031 17.0833 203.555 17.1562 203.039 17.1562C202.544 17.1562 202.078 17.0859 201.641 16.9453C201.208 16.8047 200.826 16.6016 200.492 16.3359C200.159 16.0651 199.898 15.7344 199.711 15.3438C199.523 14.9479 199.43 14.4974 199.43 13.9922H200.875C200.875 14.388 200.961 14.7344 201.133 15.0312C201.31 15.3281 201.56 15.5599 201.883 15.7266C202.211 15.888 202.596 15.9688 203.039 15.9688C203.482 15.9688 203.862 15.8932 204.18 15.7422C204.503 15.5859 204.75 15.3516 204.922 15.0391C205.099 14.7266 205.188 14.3333 205.188 13.8594C205.188 13.3854 205.089 12.9974 204.891 12.6953C204.693 12.388 204.411 12.1615 204.047 12.0156C203.688 11.8646 203.263 11.7891 202.773 11.7891H201.742Z" fill="white" fill-opacity="0.5"/>
</svg>
