<svg width="44" height="44" viewBox="0 0 44 44" fill="none" xmlns="http://www.w3.org/2000/svg">
<path fill-rule="evenodd" clip-rule="evenodd" d="M22 38C30.8366 38 38 30.8366 38 22C38 13.1634 30.8366 6 22 6C13.1634 6 6 13.1634 6 22C6 30.8366 13.1634 38 22 38ZM15.4804 23.3359C15.0899 23.7264 15.0899 24.3596 15.4804 24.7501C15.8709 25.1406 16.5041 25.1406 16.8946 24.7501L21.9963 19.6484L27.098 24.7501C27.4886 25.1406 28.1217 25.1406 28.5123 24.7501C28.9028 24.3596 28.9028 23.7264 28.5123 23.3359L23.1277 17.9513C22.5029 17.3265 21.4898 17.3265 20.865 17.9513L15.4804 23.3359Z" fill="white"/>
</svg>
