<svg width="44" height="44" viewBox="0 0 44 44" fill="none" xmlns="http://www.w3.org/2000/svg">
<path fill-rule="evenodd" clip-rule="evenodd" d="M37 22C37 30.2843 30.2843 37 22 37C13.7157 37 7 30.2843 7 22C7 13.7157 13.7157 7 22 7C30.2843 7 37 13.7157 37 22ZM38 22C38 30.8366 30.8366 38 22 38C13.1634 38 6 30.8366 6 22C6 13.1634 13.1634 6 22 6C30.8366 6 38 13.1634 38 22ZM15.8301 23.6894C15.6349 23.8847 15.6349 24.2013 15.8301 24.3965C16.0254 24.5918 16.342 24.5918 16.5372 24.3965L21.9218 19.012C21.9608 18.9729 22.0242 18.9729 22.0632 19.012L27.4478 24.3965C27.643 24.5918 27.9596 24.5918 28.1549 24.3965C28.3501 24.2013 28.3501 23.8847 28.1549 23.6894L22.7703 18.3049C22.3407 17.8753 21.6443 17.8753 21.2147 18.3049L15.8301 23.6894Z" fill="white"/>
</svg>
