<svg width="225" height="4" viewBox="0 0 225 4" fill="none" xmlns="http://www.w3.org/2000/svg">
<path d="M223.5 3.5C224.328 3.5 225 2.82843 225 2C225 1.17157 224.328 0.5 223.5 0.5C222.672 0.5 222 1.17157 222 2C222 2.82843 222.672 3.5 223.5 3.5Z" fill="white"/>
<path d="M217.5 3.5C218.328 3.5 219 2.82843 219 2C219 1.17157 218.328 0.5 217.5 0.5C216.672 0.5 216 1.17157 216 2C216 2.82843 216.672 3.5 217.5 3.5Z" fill="white"/>
<path d="M211.5 3.5C212.328 3.5 213 2.82843 213 2C213 1.17157 212.328 0.5 211.5 0.5C210.672 0.5 210 1.17157 210 2C210 2.82843 210.672 3.5 211.5 3.5Z" fill="white"/>
<path d="M205.5 3.5C206.328 3.5 207 2.82843 207 2C207 1.17157 206.328 0.5 205.5 0.5C204.672 0.5 204 1.17157 204 2C204 2.82843 204.672 3.5 205.5 3.5Z" fill="white"/>
<path d="M199.5 3.5C200.328 3.5 201 2.82843 201 2C201 1.17157 200.328 0.5 199.5 0.5C198.672 0.5 198 1.17157 198 2C198 2.82843 198.672 3.5 199.5 3.5Z" fill="white"/>
<path d="M193.5 3.5C194.328 3.5 195 2.82843 195 2C195 1.17157 194.328 0.5 193.5 0.5C192.672 0.5 192 1.17157 192 2C192 2.82843 192.672 3.5 193.5 3.5Z" fill="white"/>
<path d="M187.5 3.5C188.328 3.5 189 2.82843 189 2C189 1.17157 188.328 0.5 187.5 0.5C186.672 0.5 186 1.17157 186 2C186 2.82843 186.672 3.5 187.5 3.5Z" fill="white"/>
<path d="M181.5 3.5C182.328 3.5 183 2.82843 183 2C183 1.17157 182.328 0.5 181.5 0.5C180.672 0.5 180 1.17157 180 2C180 2.82843 180.672 3.5 181.5 3.5Z" fill="white"/>
<path d="M175.5 3.5C176.328 3.5 177 2.82843 177 2C177 1.17157 176.328 0.5 175.5 0.5C174.672 0.5 174 1.17157 174 2C174 2.82843 174.672 3.5 175.5 3.5Z" fill="white"/>
<path d="M169.5 3.5C170.328 3.5 171 2.82843 171 2C171 1.17157 170.328 0.5 169.5 0.5C168.672 0.5 168 1.17157 168 2C168 2.82843 168.672 3.5 169.5 3.5Z" fill="white"/>
<path d="M163.5 3.5C164.328 3.5 165 2.82843 165 2C165 1.17157 164.328 0.5 163.5 0.5C162.672 0.5 162 1.17157 162 2C162 2.82843 162.672 3.5 163.5 3.5Z" fill="white"/>
<path d="M157.5 3.5C158.328 3.5 159 2.82843 159 2C159 1.17157 158.328 0.5 157.5 0.5C156.672 0.5 156 1.17157 156 2C156 2.82843 156.672 3.5 157.5 3.5Z" fill="white"/>
<path d="M151.5 3.5C152.328 3.5 153 2.82843 153 2C153 1.17157 152.328 0.5 151.5 0.5C150.672 0.5 150 1.17157 150 2C150 2.82843 150.672 3.5 151.5 3.5Z" fill="white"/>
<path d="M145.5 3.5C146.328 3.5 147 2.82843 147 2C147 1.17157 146.328 0.5 145.5 0.5C144.672 0.5 144 1.17157 144 2C144 2.82843 144.672 3.5 145.5 3.5Z" fill="white"/>
<path d="M139.5 3.5C140.328 3.5 141 2.82843 141 2C141 1.17157 140.328 0.5 139.5 0.5C138.672 0.5 138 1.17157 138 2C138 2.82843 138.672 3.5 139.5 3.5Z" fill="white"/>
<path d="M133.5 3.5C134.328 3.5 135 2.82843 135 2C135 1.17157 134.328 0.5 133.5 0.5C132.672 0.5 132 1.17157 132 2C132 2.82843 132.672 3.5 133.5 3.5Z" fill="white"/>
<path d="M127.5 3.5C128.328 3.5 129 2.82843 129 2C129 1.17157 128.328 0.5 127.5 0.5C126.672 0.5 126 1.17157 126 2C126 2.82843 126.672 3.5 127.5 3.5Z" fill="white"/>
<path d="M121.5 3.5C122.328 3.5 123 2.82843 123 2C123 1.17157 122.328 0.5 121.5 0.5C120.672 0.5 120 1.17157 120 2C120 2.82843 120.672 3.5 121.5 3.5Z" fill="white"/>
<path d="M115.5 3.5C116.328 3.5 117 2.82843 117 2C117 1.17157 116.328 0.5 115.5 0.5C114.672 0.5 114 1.17157 114 2C114 2.82843 114.672 3.5 115.5 3.5Z" fill="white"/>
<path d="M109.5 3.5C110.328 3.5 111 2.82843 111 2C111 1.17157 110.328 0.5 109.5 0.5C108.672 0.5 108 1.17157 108 2C108 2.82843 108.672 3.5 109.5 3.5Z" fill="white"/>
<path d="M103.5 3.5C104.328 3.5 105 2.82843 105 2C105 1.17157 104.328 0.5 103.5 0.5C102.672 0.5 102 1.17157 102 2C102 2.82843 102.672 3.5 103.5 3.5Z" fill="white"/>
<path d="M97.5 3.5C98.3284 3.5 99 2.82843 99 2C99 1.17157 98.3284 0.5 97.5 0.5C96.6716 0.5 96 1.17157 96 2C96 2.82843 96.6716 3.5 97.5 3.5Z" fill="white"/>
<path d="M91.5 3.5C92.3284 3.5 93 2.82843 93 2C93 1.17157 92.3284 0.5 91.5 0.5C90.6716 0.5 90 1.17157 90 2C90 2.82843 90.6716 3.5 91.5 3.5Z" fill="white"/>
<path d="M85.5 3.5C86.3284 3.5 87 2.82843 87 2C87 1.17157 86.3284 0.5 85.5 0.5C84.6716 0.5 84 1.17157 84 2C84 2.82843 84.6716 3.5 85.5 3.5Z" fill="white"/>
<path d="M79.5 3.5C80.3284 3.5 81 2.82843 81 2C81 1.17157 80.3284 0.5 79.5 0.5C78.6716 0.5 78 1.17157 78 2C78 2.82843 78.6716 3.5 79.5 3.5Z" fill="white"/>
<path d="M73.5 3.5C74.3284 3.5 75 2.82843 75 2C75 1.17157 74.3284 0.5 73.5 0.5C72.6716 0.5 72 1.17157 72 2C72 2.82843 72.6716 3.5 73.5 3.5Z" fill="white"/>
<path d="M67.5 3.5C68.3284 3.5 69 2.82843 69 2C69 1.17157 68.3284 0.5 67.5 0.5C66.6716 0.5 66 1.17157 66 2C66 2.82843 66.6716 3.5 67.5 3.5Z" fill="white"/>
<path d="M61.5 3.5C62.3284 3.5 63 2.82843 63 2C63 1.17157 62.3284 0.5 61.5 0.5C60.6716 0.5 60 1.17157 60 2C60 2.82843 60.6716 3.5 61.5 3.5Z" fill="white"/>
<path d="M55.5 3.5C56.3284 3.5 57 2.82843 57 2C57 1.17157 56.3284 0.5 55.5 0.5C54.6716 0.5 54 1.17157 54 2C54 2.82843 54.6716 3.5 55.5 3.5Z" fill="white"/>
<path d="M49.5 3.5C50.3284 3.5 51 2.82843 51 2C51 1.17157 50.3284 0.5 49.5 0.5C48.6716 0.5 48 1.17157 48 2C48 2.82843 48.6716 3.5 49.5 3.5Z" fill="white"/>
<path d="M43.5 3.5C44.3284 3.5 45 2.82843 45 2C45 1.17157 44.3284 0.5 43.5 0.5C42.6716 0.5 42 1.17157 42 2C42 2.82843 42.6716 3.5 43.5 3.5Z" fill="white"/>
<path d="M37.5 3.5C38.3284 3.5 39 2.82843 39 2C39 1.17157 38.3284 0.5 37.5 0.5C36.6716 0.5 36 1.17157 36 2C36 2.82843 36.6716 3.5 37.5 3.5Z" fill="white"/>
<path d="M31.5 3.5C32.3284 3.5 33 2.82843 33 2C33 1.17157 32.3284 0.5 31.5 0.5C30.6716 0.5 30 1.17157 30 2C30 2.82843 30.6716 3.5 31.5 3.5Z" fill="white"/>
<path d="M25.5 3.5C26.3284 3.5 27 2.82843 27 2C27 1.17157 26.3284 0.5 25.5 0.5C24.6716 0.5 24 1.17157 24 2C24 2.82843 24.6716 3.5 25.5 3.5Z" fill="white"/>
<path d="M19.5 3.5C20.3284 3.5 21 2.82843 21 2C21 1.17157 20.3284 0.5 19.5 0.5C18.6716 0.5 18 1.17157 18 2C18 2.82843 18.6716 3.5 19.5 3.5Z" fill="white"/>
<path d="M13.5 3.5C14.3284 3.5 15 2.82843 15 2C15 1.17157 14.3284 0.5 13.5 0.5C12.6716 0.5 12 1.17157 12 2C12 2.82843 12.6716 3.5 13.5 3.5Z" fill="white"/>
<path d="M7.5 3.5C8.32843 3.5 9 2.82843 9 2C9 1.17157 8.32843 0.5 7.5 0.5C6.67157 0.5 6 1.17157 6 2C6 2.82843 6.67157 3.5 7.5 3.5Z" fill="white"/>
<path d="M1.5 3.5C2.32843 3.5 3 2.82843 3 2C3 1.17157 2.32843 0.5 1.5 0.5C0.671573 0.5 0 1.17157 0 2C0 2.82843 0.671573 3.5 1.5 3.5Z" fill="white"/>
</svg>
